<?xml version="1.0"?>
<svg
  xmlns="http://www.w3.org/2000/svg"
  xmlns:xlink="http://www.w3.org/1999/xlink" version="1.1"
  preserveAspectRatio="xMinYMin meet"
  viewBox="-93.086 5.4658 29.999899999999997 70"
  width="100%" height="100%"
>
  <g stroke="#000000" stroke-width="0.1%" fill="none" transform="matrix(1,0,0,-1,0,0)">
    <g stroke="rgb(51, 51, 51)">
  <g>
    <path d="M -93.086 -5.4658 C -93.086 -5.4658 -63.0861 -5.4658 -63.0861 -5.4658" />
    <path d="M -63.0861 -5.4658 C -63.0861 -5.4658 -63.0861 -75.4658 -63.0861 -75.4658" />
    <path d="M -63.0861 -75.4658 C -63.0861 -75.4658 -93.086 -75.4658 -93.086 -75.4658" />
    <path d="M -93.086 -75.4658 C -93.086 -75.4658 -93.086 -5.4658 -93.086 -5.4658" />
  </g>
</g>
<g stroke="rgb(51, 51, 51)">
  <g>
    <path d="M -91.8148 -41.7833 C -91.6231 -41.2524 -91.2671 -40.7193 -90.7457 -40.4659" />
    <path d="M -90.7457 -40.4659 C -91.2671 -40.2123 -91.6231 -39.6792 -91.8148 -39.1483" />
    <path d="M -91.8148 -39.1483 C -91.8148 -39.1483 -91.8148 -41.7833 -91.8148 -41.7833" />
  </g>
</g>
<g stroke="rgb(51, 51, 51)">
  <g>
    <path d="M -89.0574 -40.4659 C -88.7416 -40.6331 -88.413 -40.9921 -88.293 -41.3775" />
    <path d="M -88.293 -41.3775 C -87.922 -42.5687 -89.3251 -42.8428 -90.0636 -42.2871" />
    <path d="M -90.0636 -42.2871 C -90.8907 -44.5294 -89.0157 -46.2901 -86.9675 -46.8225" />
    <path d="M -86.9675 -46.8225 C -87.5011 -44.1858 -86.302 -43.6821 -85.5347 -41.8969" />
    <path d="M -85.5347 -41.8969 C -85.3168 -41.39 -85.2908 -40.8781 -85.0673 -41.0927" />
    <path d="M -85.0673 -41.0927 C -85.0272 -41.0273 -85.0219 -40.8863 -84.9368 -40.8575" />
    <path d="M -84.9368 -40.8575 C -84.7746 -40.8026 -84.4945 -40.6641 -84.496 -40.4659" />
    <path d="M -84.496 -40.4659 C -84.4945 -40.2675 -84.7746 -40.1291 -84.9368 -40.0741" />
    <path d="M -84.9368 -40.0741 C -85.0219 -40.0453 -85.0272 -39.9043 -85.0673 -39.8389" />
    <path d="M -85.0673 -39.8389 C -85.2908 -40.0536 -85.3168 -39.5416 -85.5347 -39.0347" />
    <path d="M -85.5347 -39.0347 C -86.302 -37.2496 -87.5011 -36.7459 -86.9675 -34.1091" />
    <path d="M -86.9675 -34.1091 C -89.0157 -34.6415 -90.8907 -36.4023 -90.0636 -38.6446" />
    <path d="M -90.0636 -38.6446 C -89.3251 -38.0888 -87.922 -38.3629 -88.293 -39.5541" />
    <path d="M -88.293 -39.5541 C -88.413 -39.9394 -88.7416 -40.2985 -89.0574 -40.4659" />
  </g>
</g>
<g stroke="rgb(51, 51, 51)">
  <g>
    <path d="M -83.9745 -40.4659 C -83.9204 -40.6799 -83.8301 -41.2801 -84.119 -41.4007" />
    <path d="M -84.119 -41.4007 C -83.9483 -41.7339 -84.0491 -41.9076 -84.3785 -42.0337" />
    <path d="M -84.3785 -42.0337 C -82.6478 -41.9322 -81.1016 -42.6221 -81.194 -44.6075" />
    <path d="M -81.194 -44.6075 C -81.2719 -46.2815 -82.6403 -46.393 -83.4029 -46.0411" />
    <path d="M -83.4029 -46.0411 C -84.6546 -45.4635 -83.7259 -43.8118 -82.575 -44.6787" />
    <path d="M -82.575 -44.6787 C -82.457 -44.232 -82.5238 -43.7422 -82.8452 -43.5012" />
    <path d="M -82.8452 -43.5012 C -83.0475 -43.9897 -83.3006 -43.6195 -83.4688 -43.4292" />
    <path d="M -83.4688 -43.4292 C -83.9069 -42.9331 -84.565 -43.2822 -84.8358 -43.6189" />
    <path d="M -84.8358 -43.6189 C -84.6378 -43.5794 -84.4439 -43.6162 -84.2828 -43.8239" />
    <path d="M -84.2828 -43.8239 C -84.7653 -43.877 -85.1867 -44.1842 -85.3592 -44.6418" />
    <path d="M -85.3592 -44.6418 C -85.1359 -44.6298 -84.9146 -44.6364 -84.6911 -44.6424" />
    <path d="M -84.6911 -44.6424 C -84.6911 -44.8518 -84.7453 -45.0667 -84.9183 -45.2059" />
    <path d="M -84.9183 -45.2059 C -84.7181 -45.3236 -84.5575 -45.498 -84.6571 -45.7409" />
    <path d="M -84.6571 -45.7409 C -84.4216 -45.739 -84.2824 -45.8095 -84.1717 -46.0183" />
    <path d="M -84.1717 -46.0183 C -85.7068 -46.9905 -82.8904 -49.6767 -80.7308 -47.4743" />
    <path d="M -80.7308 -47.4743 C -81.16 -47.6364 -81.7311 -47.7415 -82.1228 -47.4391" />
    <path d="M -82.1228 -47.4391 C -81.4335 -47.4391 -81.4414 -46.6693 -80.6395 -46.1362" />
    <path d="M -80.6395 -46.1362 C -80.907 -46.0319 -81.0603 -45.916 -81.1359 -45.6241" />
    <path d="M -81.1359 -45.6241 C -80.8179 -45.6241 -80.1159 -45.4266 -80.1022 -45.0132" />
    <path d="M -80.1022 -45.0132 C -80.7099 -45.3641 -81.1415 -45.1767 -80.8042 -44.5232" />
    <path d="M -80.8042 -44.5232 C -81.1347 -44.2091 -81.1183 -43.7794 -80.8262 -43.571" />
    <path d="M -80.8262 -43.571 C -79.9265 -44.7222 -79.366 -41.3427 -80.8295 -40.8282" />
    <path d="M -80.8295 -40.8282 C -81.2153 -41.819 -82.3548 -41.1754 -81.7415 -40.4659" />
    <path d="M -81.7415 -40.4659 C -82.3548 -39.7563 -81.2153 -39.1126 -80.8295 -40.1034" />
    <path d="M -80.8295 -40.1034 C -79.366 -39.5889 -79.9265 -36.2094 -80.8262 -37.3606" />
    <path d="M -80.8262 -37.3606 C -81.1183 -37.1521 -81.1347 -36.7225 -80.8042 -36.4085" />
    <path d="M -80.8042 -36.4085 C -81.1415 -35.7549 -80.7099 -35.5675 -80.1022 -35.9185" />
    <path d="M -80.1022 -35.9185 C -80.1159 -35.5051 -80.8179 -35.3075 -81.1359 -35.3075" />
    <path d="M -81.1359 -35.3075 C -81.0603 -35.0156 -80.907 -34.8998 -80.6395 -34.7955" />
    <path d="M -80.6395 -34.7955 C -81.4414 -34.2624 -81.4335 -33.4924 -82.1228 -33.4924" />
    <path d="M -82.1228 -33.4924 C -81.7311 -33.1901 -81.16 -33.2953 -80.7308 -33.4574" />
    <path d="M -80.7308 -33.4574 C -82.8904 -31.2549 -85.7068 -33.9411 -84.1717 -34.9134" />
    <path d="M -84.1717 -34.9134 C -84.2824 -35.122 -84.4216 -35.1927 -84.6571 -35.1908" />
    <path d="M -84.6571 -35.1908 C -84.5575 -35.4336 -84.7181 -35.608 -84.9183 -35.7258" />
    <path d="M -84.9183 -35.7258 C -84.7453 -35.8649 -84.6911 -36.0798 -84.6911 -36.2892" />
    <path d="M -84.6911 -36.2892 C -84.9146 -36.2953 -85.1359 -36.3018 -85.3592 -36.2898" />
    <path d="M -85.3592 -36.2898 C -85.1867 -36.7474 -84.7653 -37.0546 -84.2828 -37.1077" />
    <path d="M -84.2828 -37.1077 C -84.4439 -37.3155 -84.6378 -37.3523 -84.8358 -37.3127" />
    <path d="M -84.8358 -37.3127 C -84.565 -37.6495 -83.9069 -37.9986 -83.4688 -37.5025" />
    <path d="M -83.4688 -37.5025 C -83.3006 -37.3121 -83.0475 -36.9419 -82.8452 -37.4304" />
    <path d="M -82.8452 -37.4304 C -82.5238 -37.1895 -82.457 -36.6996 -82.575 -36.2529" />
    <path d="M -82.575 -36.2529 C -83.7259 -37.1198 -84.6546 -35.4682 -83.4029 -34.8906" />
    <path d="M -83.4029 -34.8906 C -82.6403 -34.5386 -81.2719 -34.6501 -81.194 -36.3241" />
    <path d="M -81.194 -36.3241 C -81.1016 -38.3095 -82.6478 -38.9995 -84.3785 -38.8979" />
    <path d="M -84.3785 -38.8979 C -84.0491 -39.024 -83.9483 -39.1978 -84.119 -39.5308" />
    <path d="M -84.119 -39.5308 C -83.8301 -39.6515 -83.9204 -40.2518 -83.9745 -40.4659" />
  </g>
</g>
<g stroke="rgb(51, 51, 51)">
  <g>
    <path d="M -79.5812 -40.4659 C -78.8566 -40.9335 -78.227 -42.4356 -78.086 -43.3437" />
    <path d="M -78.086 -43.3437 C -77.9451 -42.4356 -77.3155 -40.9335 -76.5909 -40.4659" />
    <path d="M -76.5909 -40.4659 C -77.3155 -39.9981 -77.9451 -38.496 -78.086 -37.5878" />
    <path d="M -78.086 -37.5878 C -78.227 -38.496 -78.8566 -39.9981 -79.5812 -40.4659" />
  </g>
</g>
<g stroke="rgb(51, 51, 51)">
  <g>
    <path d="M -74.4306 -40.4659 C -73.8173 -41.1754 -74.9568 -41.819 -75.3426 -40.8282" />
    <path d="M -75.3426 -40.8282 C -76.8061 -41.3427 -76.2456 -44.7222 -75.3459 -43.571" />
    <path d="M -75.3459 -43.571 C -75.0538 -43.7794 -75.0374 -44.2091 -75.3679 -44.5232" />
    <path d="M -75.3679 -44.5232 C -75.0306 -45.1767 -75.4622 -45.3641 -76.0699 -45.0132" />
    <path d="M -76.0699 -45.0132 C -76.0562 -45.4266 -75.3542 -45.6241 -75.0362 -45.6241" />
    <path d="M -75.0362 -45.6241 C -75.1118 -45.916 -75.2651 -46.0319 -75.5326 -46.1362" />
    <path d="M -75.5326 -46.1362 C -74.7307 -46.6693 -74.7386 -47.4391 -74.0493 -47.4391" />
    <path d="M -74.0493 -47.4391 C -74.441 -47.7415 -75.0121 -47.6364 -75.4413 -47.4743" />
    <path d="M -75.4413 -47.4743 C -73.2817 -49.6767 -70.4653 -46.9905 -72.0004 -46.0183" />
    <path d="M -72.0004 -46.0183 C -71.8897 -45.8095 -71.7505 -45.739 -71.515 -45.7409" />
    <path d="M -71.515 -45.7409 C -71.6146 -45.498 -71.454 -45.3236 -71.2538 -45.2059" />
    <path d="M -71.2538 -45.2059 C -71.4268 -45.0667 -71.481 -44.8518 -71.481 -44.6424" />
    <path d="M -71.481 -44.6424 C -71.2575 -44.6364 -71.0362 -44.6298 -70.8129 -44.6418" />
    <path d="M -70.8129 -44.6418 C -70.9854 -44.1842 -71.4068 -43.877 -71.8893 -43.8239" />
    <path d="M -71.8893 -43.8239 C -71.7282 -43.6162 -71.5343 -43.5794 -71.3363 -43.6189" />
    <path d="M -71.3363 -43.6189 C -71.6071 -43.2822 -72.2652 -42.9331 -72.7033 -43.4292" />
    <path d="M -72.7033 -43.4292 C -72.8715 -43.6195 -73.1246 -43.9897 -73.3269 -43.5012" />
    <path d="M -73.3269 -43.5012 C -73.6483 -43.7422 -73.7151 -44.232 -73.5971 -44.6787" />
    <path d="M -73.5971 -44.6787 C -72.4462 -43.8118 -71.5175 -45.4635 -72.7692 -46.0411" />
    <path d="M -72.7692 -46.0411 C -73.5318 -46.393 -74.9002 -46.2815 -74.9781 -44.6075" />
    <path d="M -74.9781 -44.6075 C -75.0705 -42.6221 -73.5243 -41.9322 -71.7936 -42.0337" />
    <path d="M -71.7936 -42.0337 C -72.123 -41.9076 -72.2238 -41.7339 -72.0531 -41.4007" />
    <path d="M -72.0531 -41.4007 C -72.342 -41.2801 -72.2517 -40.6799 -72.1976 -40.4659" />
    <path d="M -72.1976 -40.4659 C -72.2517 -40.2518 -72.342 -39.6515 -72.0531 -39.5308" />
    <path d="M -72.0531 -39.5308 C -72.2238 -39.1978 -72.123 -39.024 -71.7936 -38.8979" />
    <path d="M -71.7936 -38.8979 C -73.5243 -38.9995 -75.0705 -38.3095 -74.9781 -36.3241" />
    <path d="M -74.9781 -36.3241 C -74.9002 -34.6501 -73.5318 -34.5386 -72.7692 -34.8906" />
    <path d="M -72.7692 -34.8906 C -71.5175 -35.4682 -72.4462 -37.1198 -73.5971 -36.2529" />
    <path d="M -73.5971 -36.2529 C -73.7151 -36.6996 -73.6483 -37.1895 -73.3269 -37.4304" />
    <path d="M -73.3269 -37.4304 C -73.1246 -36.9419 -72.8715 -37.3121 -72.7033 -37.5025" />
    <path d="M -72.7033 -37.5025 C -72.2652 -37.9986 -71.6071 -37.6495 -71.3363 -37.3127" />
    <path d="M -71.3363 -37.3127 C -71.5343 -37.3523 -71.7282 -37.3155 -71.8893 -37.1077" />
    <path d="M -71.8893 -37.1077 C -71.4068 -37.0546 -70.9854 -36.7474 -70.8129 -36.2898" />
    <path d="M -70.8129 -36.2898 C -71.0362 -36.3018 -71.2575 -36.2953 -71.481 -36.2892" />
    <path d="M -71.481 -36.2892 C -71.481 -36.0798 -71.4268 -35.8649 -71.2538 -35.7258" />
    <path d="M -71.2538 -35.7258 C -71.454 -35.608 -71.6146 -35.4336 -71.515 -35.1908" />
    <path d="M -71.515 -35.1908 C -71.7505 -35.1927 -71.8897 -35.122 -72.0004 -34.9134" />
    <path d="M -72.0004 -34.9134 C -70.4653 -33.9411 -73.2817 -31.2549 -75.4413 -33.4574" />
    <path d="M -75.4413 -33.4574 C -75.0121 -33.2953 -74.441 -33.1901 -74.0493 -33.4924" />
    <path d="M -74.0493 -33.4924 C -74.7386 -33.4924 -74.7307 -34.2624 -75.5326 -34.7955" />
    <path d="M -75.5326 -34.7955 C -75.2651 -34.8998 -75.1118 -35.0156 -75.0362 -35.3075" />
    <path d="M -75.0362 -35.3075 C -75.3542 -35.3075 -76.0562 -35.5051 -76.0699 -35.9185" />
    <path d="M -76.0699 -35.9185 C -75.4622 -35.5675 -75.0306 -35.7549 -75.3679 -36.4085" />
    <path d="M -75.3679 -36.4085 C -75.0374 -36.7225 -75.0538 -37.1521 -75.3459 -37.3606" />
    <path d="M -75.3459 -37.3606 C -76.2456 -36.2094 -76.8061 -39.5889 -75.3426 -40.1034" />
    <path d="M -75.3426 -40.1034 C -74.9568 -39.1126 -73.8173 -39.7563 -74.4306 -40.4659" />
  </g>
</g>
<g stroke="rgb(51, 51, 51)">
  <g>
    <path d="M -71.6761 -40.4659 C -71.6776 -40.6641 -71.3975 -40.8026 -71.2353 -40.8575" />
    <path d="M -71.2353 -40.8575 C -71.1502 -40.8863 -71.1449 -41.0273 -71.1048 -41.0927" />
    <path d="M -71.1048 -41.0927 C -70.8813 -40.8781 -70.8553 -41.39 -70.6374 -41.8969" />
    <path d="M -70.6374 -41.8969 C -69.8701 -43.6821 -68.6709 -44.1858 -69.2046 -46.8225" />
    <path d="M -69.2046 -46.8225 C -67.1564 -46.2901 -65.2814 -44.5294 -66.1085 -42.2871" />
    <path d="M -66.1085 -42.2871 C -66.847 -42.8428 -68.2501 -42.5687 -67.8791 -41.3775" />
    <path d="M -67.8791 -41.3775 C -67.7591 -40.9921 -67.4305 -40.6331 -67.1147 -40.4659" />
    <path d="M -67.1147 -40.4659 C -67.4305 -40.2985 -67.7591 -39.9394 -67.8791 -39.5541" />
    <path d="M -67.8791 -39.5541 C -68.2501 -38.3629 -66.847 -38.0888 -66.1085 -38.6446" />
    <path d="M -66.1085 -38.6446 C -65.2814 -36.4023 -67.1564 -34.6415 -69.2046 -34.1091" />
    <path d="M -69.2046 -34.1091 C -68.6709 -36.7459 -69.8701 -37.2496 -70.6374 -39.0347" />
    <path d="M -70.6374 -39.0347 C -70.8553 -39.5416 -70.8813 -40.0536 -71.1048 -39.8389" />
    <path d="M -71.1048 -39.8389 C -71.1449 -39.9043 -71.1502 -40.0453 -71.2353 -40.0741" />
    <path d="M -71.2353 -40.0741 C -71.3975 -40.1291 -71.6776 -40.2675 -71.6761 -40.4659" />
  </g>
</g>
<g stroke="rgb(51, 51, 51)">
  <g>
    <path d="M -65.4264 -40.4659 C -64.905 -40.7193 -64.549 -41.2524 -64.3573 -41.7833" />
    <path d="M -64.3573 -41.7833 C -64.3573 -41.7833 -64.3573 -39.1483 -64.3573 -39.1483" />
    <path d="M -64.3573 -39.1483 C -64.549 -39.6792 -64.905 -40.2123 -65.4264 -40.4659" />
  </g>
</g>
<g stroke="rgb(51, 51, 51)">
  <g>
    <path d="M -78.086 -35.0948 C -78.4311 -33.7159 -79.1081 -32.2494 -80.5019 -31.2134" />
    <path d="M -80.5019 -31.2134 C -79.1444 -31.1976 -78.8156 -29.6893 -80.0495 -29.3704" />
    <path d="M -80.0495 -29.3704 C -80.4995 -29.2541 -80.9281 -29.6499 -81.0249 -30.0756" />
    <path d="M -81.0249 -30.0756 C -82.8251 -29.0239 -80.3049 -25.633 -79.5068 -24.7686" />
    <path d="M -79.5068 -24.7686 C -79.4166 -25.2468 -79.1895 -25.7148 -78.6352 -25.7148" />
    <path d="M -78.6352 -25.7148 C -78.6352 -23.9462 -78.388 -24.4963 -78.086 -23.6039" />
    <path d="M -78.086 -23.6039 C -77.7841 -24.4963 -77.5369 -23.9462 -77.5369 -25.7148" />
    <path d="M -77.5369 -25.7148 C -76.9826 -25.7148 -76.7555 -25.2468 -76.6653 -24.7686" />
    <path d="M -76.6653 -24.7686 C -75.8672 -25.633 -73.347 -29.0239 -75.1472 -30.0756" />
    <path d="M -75.1472 -30.0756 C -75.244 -29.6499 -75.6726 -29.2541 -76.1226 -29.3704" />
    <path d="M -76.1226 -29.3704 C -77.3565 -29.6893 -77.0277 -31.1976 -75.6702 -31.2134" />
    <path d="M -75.6702 -31.2134 C -77.064 -32.2494 -77.741 -33.7159 -78.086 -35.0948" />
  </g>
</g>
<g stroke="rgb(51, 51, 51)">
  <g>
    <path d="M -78.086 -21.7204 C -78.5995 -20.3981 -79.8639 -19.0481 -81.0922 -18.451" />
    <path d="M -81.0922 -18.451 C -80.3805 -18.2376 -79.8438 -18.3633 -79.8438 -18.3633" />
    <path d="M -79.8438 -18.3633 C -79.9428 -18.093 -80.3941 -17.8922 -80.6402 -17.7942" />
    <path d="M -80.6402 -17.7942 C -79.3204 -17.7866 -78.3216 -17.0446 -78.3205 -17.0446" />
    <path d="M -78.3205 -17.0446 C -79.0473 -16.764 -79.8704 -16.761 -80.6371 -16.7607" />
    <path d="M -80.6371 -16.7607 C -80.4658 -16.6717 -80.0758 -16.3521 -79.999 -16.0768" />
    <path d="M -79.999 -16.0768 C -80.5382 -16.0175 -81.0511 -16.1195 -81.573 -16.2403" />
    <path d="M -81.573 -16.2403 C -81.1919 -15.6329 -80.2857 -13.4829 -79.1756 -14.342" />
    <path d="M -79.1756 -14.342 C -79.0888 -14.1369 -79.0883 -13.9227 -79.2117 -13.7322" />
    <path d="M -79.2117 -13.7322 C -78.9557 -13.5372 -78.4157 -13.4539 -78.086 -13.4516" />
    <path d="M -78.086 -13.4516 C -77.7564 -13.4539 -77.2164 -13.5372 -76.9604 -13.7322" />
    <path d="M -76.9604 -13.7322 C -77.0838 -13.9227 -77.0833 -14.1369 -76.9965 -14.342" />
    <path d="M -76.9965 -14.342 C -75.8864 -13.4829 -74.9802 -15.6329 -74.5991 -16.2403" />
    <path d="M -74.5991 -16.2403 C -75.121 -16.1195 -75.6339 -16.0175 -76.1731 -16.0768" />
    <path d="M -76.1731 -16.0768 C -76.0963 -16.3521 -75.7063 -16.6717 -75.535 -16.7607" />
    <path d="M -75.535 -16.7607 C -76.3016 -16.761 -77.1248 -16.764 -77.8516 -17.0446" />
    <path d="M -77.8516 -17.0446 C -77.8505 -17.0446 -76.8517 -17.7866 -75.5319 -17.7942" />
    <path d="M -75.5319 -17.7942 C -75.778 -17.8922 -76.2293 -18.093 -76.3283 -18.3633" />
    <path d="M -76.3283 -18.3633 C -76.3283 -18.3633 -75.7916 -18.2376 -75.0799 -18.451" />
    <path d="M -75.0799 -18.451 C -76.3082 -19.0481 -77.5726 -20.3981 -78.086 -21.7204" />
  </g>
</g>
<g stroke="rgb(51, 51, 51)">
  <g>
    <path d="M -78.086 -13.0529 C -78.6025 -12.7261 -79.2414 -12.71 -79.8325 -12.755" />
    <path d="M -79.8325 -12.755 C -79.8325 -12.755 -79.4942 -12.232 -79.4942 -12.232" />
    <path d="M -79.4942 -12.232 C -79.8977 -12.232 -80.3759 -12.267 -80.7086 -12.5187" />
    <path d="M -80.7086 -12.5187 C -80.8216 -11.0174 -80.6613 -8.8753 -79.172 -8.099" />
    <path d="M -79.172 -8.099 C -79.2409 -8.4325 -79.0897 -9.0426 -78.6662 -8.7343" />
    <path d="M -78.6662 -8.7343 C -78.6154 -8.8908 -78.4976 -9.1664 -78.2869 -9.1384" />
    <path d="M -78.2869 -9.1384 C -78.2867 -8.4769 -78.4762 -7.9406 -78.4044 -7.5488" />
    <path d="M -78.4044 -7.5488 C -78.3495 -7.2509 -78.3039 -6.9741 -78.1004 -6.7433" />
    <path d="M -78.1004 -6.7433 C -78.1004 -6.7433 -78.0717 -6.7433 -78.0717 -6.7433" />
    <path d="M -78.0717 -6.7433 C -77.8682 -6.9741 -77.8226 -7.2509 -77.7677 -7.5488" />
    <path d="M -77.7677 -7.5488 C -77.6959 -7.9406 -77.8854 -8.4769 -77.8852 -9.1384" />
    <path d="M -77.8852 -9.1384 C -77.6744 -9.1664 -77.5567 -8.8908 -77.5058 -8.7343" />
    <path d="M -77.5058 -8.7343 C -77.0824 -9.0426 -76.9312 -8.4325 -77 -8.099" />
    <path d="M -77 -8.099 C -75.5108 -8.8753 -75.3505 -11.0174 -75.4635 -12.5187" />
    <path d="M -75.4635 -12.5187 C -75.7962 -12.267 -76.2744 -12.232 -76.6778 -12.232" />
    <path d="M -76.6778 -12.232 C -76.6778 -12.232 -76.3396 -12.755 -76.3396 -12.755" />
    <path d="M -76.3396 -12.755 C -76.9307 -12.71 -77.5696 -12.7261 -78.086 -13.0529" />
  </g>
</g>
<g stroke="rgb(51, 51, 51)">
  <g>
    <path d="M -69.5054 -29.8986 C -69.5054 -29.8986 -68.0673 -29.7552 -68.0673 -29.7552" />
    <path d="M -68.0673 -29.7552 C -68.0673 -29.7552 -68.7555 -30.2385 -68.7555 -30.2385" />
    <path d="M -68.7555 -30.2385 C -68.5316 -30.4068 -68.1405 -30.4386 -67.8676 -30.4647" />
    <path d="M -67.8676 -30.4647 C -67.8689 -28.5088 -64.999 -28.5797 -64.3573 -30.1319" />
    <path d="M -64.3573 -30.1319 C -64.3573 -30.1319 -64.3573 -25.0242 -64.3573 -25.0242" />
    <path d="M -64.3573 -25.0242 C -64.9045 -24.8928 -65.4736 -24.8996 -66.0327 -24.8996" />
    <path d="M -66.0327 -24.8996 C -65.457 -25.1316 -65.5763 -25.9173 -66.0801 -25.9173" />
    <path d="M -66.0801 -25.9173 C -66.0801 -25.3106 -67.1532 -25.5051 -67.6595 -26.5315" />
    <path d="M -67.6595 -26.5315 C -68.2661 -27.7609 -68.4468 -28.8066 -69.5054 -29.8986" />
  </g>
</g>
<g stroke="rgb(51, 51, 51)">
  <g>
    <path d="M -67.6942 -19.6327 C -67.3293 -18.5575 -65.1566 -17.1769 -64.3573 -18.5613" />
    <path d="M -64.3573 -18.5613 C -64.3573 -18.5613 -64.3573 -12.3256 -64.3573 -12.3256" />
    <path d="M -64.3573 -12.3256 C -64.7153 -12.4371 -65.0651 -12.4568 -65.4099 -12.2838" />
    <path d="M -65.4099 -12.2838 C -65.239 -12.6818 -65.3378 -12.7766 -65.5461 -13.072" />
    <path d="M -65.5461 -13.072 C -65.633 -13.3468 -65.4475 -14.0774 -65.3908 -14.3727" />
    <path d="M -65.3908 -14.3727 C -65.8558 -14.3727 -66.1877 -14.0812 -66.4294 -13.7102" />
    <path d="M -66.4294 -13.7102 C -66.9046 -14.4399 -67.6572 -14.6559 -68.3215 -15.1691" />
    <path d="M -68.3215 -15.1691 C -68.9387 -15.646 -69.2186 -16.3911 -69.4653 -17.1059" />
    <path d="M -69.4653 -17.1059 C -69.1166 -17.1125 -69.125 -17.2578 -69.1508 -17.5031" />
    <path d="M -69.1508 -17.5031 C -68.634 -17.4065 -68.4547 -17.9005 -68.7489 -18.2822" />
    <path d="M -68.7489 -18.2822 C -68.1241 -18.7573 -69.0187 -19.0371 -69.5117 -18.9919" />
    <path d="M -69.5117 -18.9919 C -69.1769 -19.2825 -68.8707 -19.5817 -68.5688 -19.9068" />
    <path d="M -68.5688 -19.9068 C -68.5566 -19.0096 -68.2479 -18.627 -67.6942 -19.6327" />
  </g>
</g>
<g stroke="rgb(51, 51, 51)">
  <g>
    <path d="M -70.0914 -28.496 C -69.4723 -28.0103 -68.8687 -25.8956 -69.6504 -25.8518" />
    <path d="M -69.6504 -25.8518 C -70.2787 -25.8165 -70.0546 -25.5031 -69.7965 -25.3233" />
    <path d="M -69.7965 -25.3233 C -69.4059 -25.051 -69.7032 -25.0485 -69.9083 -24.7307" />
    <path d="M -69.9083 -24.7307 C -70.0983 -24.4369 -69.7856 -24.0747 -70.3805 -23.908" />
    <path d="M -70.3805 -23.908 C -69.9011 -23.6626 -69.6275 -24.2828 -69.214 -24.3897" />
    <path d="M -69.214 -24.3897 C -68.6105 -24.5457 -68.9729 -23.959 -69.4331 -23.8675" />
    <path d="M -69.4331 -23.8675 C -69.99 -23.7569 -69.9499 -23.6457 -69.5999 -23.4423" />
    <path d="M -69.5999 -23.4423 C -69.291 -23.2629 -69.4779 -23.0765 -69.6728 -22.9002" />
    <path d="M -69.6728 -22.9002 C -69.8536 -22.7364 -70.0766 -22.3104 -70.0329 -21.9081" />
    <path d="M -70.0329 -21.9081 C -69.6323 -21.9081 -69.3396 -21.9627 -69.0189 -22.2037" />
    <path d="M -69.0189 -22.2037 C -69.5719 -21.1662 -70.39 -19.9118 -71.699 -19.9309" />
    <path d="M -71.699 -19.9309 C -72.0468 -19.9358 -72.2849 -20.1011 -72.4433 -20.4067" />
    <path d="M -72.4433 -20.4067 C -72.6974 -20.4067 -73.0465 -19.7397 -72.4909 -19.515" />
    <path d="M -72.4909 -19.515 C -72.6378 -19.4486 -72.6897 -19.3211 -72.6547 -19.1856" />
    <path d="M -72.6547 -19.1856 C -73.3224 -19.5337 -73.3512 -19.8845 -73.1459 -20.4425" />
    <path d="M -73.1459 -20.4425 C -73.5617 -20.5834 -73.8391 -20.2481 -73.7294 -20.7518" />
    <path d="M -73.7294 -20.7518 C -73.6721 -21.0145 -73.6034 -21.3036 -73.9653 -21.2576" />
    <path d="M -73.9653 -21.2576 C -74.256 -21.2207 -74.3912 -21.0363 -74.4459 -20.8035" />
    <path d="M -74.4459 -20.8035 C -74.4935 -20.6006 -74.4142 -20.2594 -74.6118 -20.1462" />
    <path d="M -74.6118 -20.1462 C -74.8375 -20.017 -75.0342 -19.9504 -74.1696 -19.1394" />
    <path d="M -74.1696 -19.1394 C -75.7634 -19.1589 -75.5334 -21.6453 -74.2821 -21.9789" />
    <path d="M -74.2821 -21.9789 C -73.0554 -20.5567 -70.9456 -21.1186 -70.9919 -23.3708" />
    <path d="M -70.9919 -23.3708 C -71.0222 -24.8406 -72.0798 -26.3269 -74.3688 -26.0792" />
    <path d="M -74.3688 -26.0792 C -73.2242 -27.5579 -72.9385 -29.5605 -74.1601 -30.796" />
    <path d="M -74.1601 -30.796 C -72.491 -30.4712 -72.0972 -30.0794 -71.8731 -28.3999" />
    <path d="M -71.8731 -28.3999 C -71.8731 -28.3999 -71.2008 -28.4537 -71.2008 -28.4537" />
    <path d="M -71.2008 -28.4537 C -70.8404 -28.3054 -70.4864 -27.8347 -70.427 -27.2449" />
    <path d="M -70.427 -27.2449 C -69.8632 -27.5163 -69.9775 -28.1842 -70.0914 -28.496" />
  </g>
</g>
<g stroke="rgb(51, 51, 51)">
  <g>
    <path d="M -69.1695 -9.799 C -69.1695 -9.5621 -69.165 -9.2987 -69.2972 -9.0899" />
    <path d="M -69.2972 -9.0899 C -69.4922 -9.1904 -69.6999 -9.2916 -69.9249 -9.2481" />
    <path d="M -69.9249 -9.2481 C -69.91 -9.0916 -69.8075 -8.9071 -69.6856 -8.8129" />
    <path d="M -69.6856 -8.8129 C -69.6856 -8.4946 -70.3013 -8.2745 -70.5186 -8.2182" />
    <path d="M -70.5186 -8.2182 C -70.233 -8.5043 -70.2872 -9.1487 -70.8582 -9.2938" />
    <path d="M -70.8582 -9.2938 C -71.0727 -7.685 -73.842 -9.4471 -73.9177 -10.9666" />
    <path d="M -73.9177 -10.9666 C -73.6851 -10.7429 -73.2261 -10.5896 -72.9102 -10.5896" />
    <path d="M -72.9102 -10.5896 C -73.0035 -11.0936 -73.2279 -11.4272 -73.5003 -11.8453" />
    <path d="M -73.5003 -11.8453 C -73.297 -11.8879 -73.1726 -12.2638 -73.3786 -12.4999" />
    <path d="M -73.3786 -12.4999 C -73.5477 -12.3692 -73.8079 -12.3407 -73.927 -12.5929" />
    <path d="M -73.927 -12.5929 C -74.0379 -12.8279 -73.6598 -13.0628 -73.4367 -12.8108" />
    <path d="M -73.4367 -12.8108 C -72.8678 -12.169 -72.775 -12.494 -72.5547 -12.494" />
    <path d="M -72.5547 -12.494 C -72.7776 -12.666 -72.9791 -12.944 -72.9231 -13.2319" />
    <path d="M -72.9231 -13.2319 C -72.8767 -13.4705 -72.7839 -13.4962 -73.1136 -13.8805" />
    <path d="M -73.1136 -13.8805 C -72.7311 -13.8867 -72.7492 -14.1217 -72.8127 -14.4168" />
    <path d="M -72.8127 -14.4168 C -73.939 -13.8362 -73.4365 -15.7921 -73.2203 -16.1262" />
    <path d="M -73.2203 -16.1262 C -72.6097 -17.0701 -71.6955 -17.6817 -70.6706 -18.1238" />
    <path d="M -70.6706 -18.1238 C -71.0711 -17.3767 -70.7553 -15.6742 -69.9842 -15.2503" />
    <path d="M -69.9842 -15.2503 C -70.4007 -15.2929 -70.8465 -15.3212 -71.2425 -15.1871" />
    <path d="M -71.2425 -15.1871 C -71.229 -15.0202 -70.7182 -14.4252 -70.5442 -14.3947" />
    <path d="M -70.5442 -14.3947 C -72.1545 -13.5625 -72.7571 -10.9032 -71.0761 -10.1136" />
    <path d="M -71.0761 -10.1136 C -70.1439 -9.6757 -68.7259 -9.778 -68.7129 -10.7583" />
    <path d="M -68.7129 -10.7583 C -68.5693 -10.5584 -68.4038 -10.3736 -68.27 -10.167" />
    <path d="M -68.27 -10.167 C -68.4333 -9.997 -68.6224 -9.7453 -68.426 -9.517" />
    <path d="M -68.426 -9.517 C -68.1609 -9.6682 -67.7961 -9.6061 -67.7185 -9.3493" />
    <path d="M -67.7185 -9.3493 C -67.5733 -8.8691 -68.2327 -7.9858 -68.7488 -8.1205" />
    <path d="M -68.7488 -8.1205 C -68.1903 -8.3744 -68.0025 -8.8115 -68.6122 -9.0278" />
    <path d="M -68.6122 -9.0278 C -68.5764 -9.293 -68.7888 -9.7128 -69.1695 -9.799" />
  </g>
</g>
<g stroke="rgb(51, 51, 51)">
  <g>
    <path d="M -67.6154 -10.5948 C -67.7826 -10.9653 -68.2507 -11.055 -68.6067 -11.1466" />
    <path d="M -68.6067 -11.1466 C -69.0114 -11.879 -69.7428 -12.396 -70.2421 -11.6474" />
    <path d="M -70.2421 -11.6474 C -70.8095 -13.0366 -68.4218 -13.9008 -67.3122 -12.466" />
    <path d="M -67.3122 -12.466 C -67.3122 -12.466 -67.0042 -12.0663 -67.0042 -12.0663" />
    <path d="M -67.0042 -12.0663 C -67.3287 -12.1273 -67.5196 -12.094 -67.8168 -11.9413" />
    <path d="M -67.8168 -11.9413 C -67.5124 -11.9903 -66.912 -11.0596 -66.8028 -10.8103" />
    <path d="M -66.8028 -10.8103 C -67.1623 -11.0404 -67.407 -10.9981 -67.6154 -10.5948" />
  </g>
</g>
<g stroke="rgb(51, 51, 51)">
  <g>
    <path d="M -74.4395 -22.3958 C -74.8761 -22.5047 -75.2746 -22.3451 -75.588 -22.0298" />
    <path d="M -75.588 -22.0298 C -75.6513 -22.2077 -75.865 -22.2715 -76.0322 -22.2174" />
    <path d="M -76.0322 -22.2174 C -75.636 -22.6159 -75.4184 -23.0214 -75.2776 -23.5636" />
    <path d="M -75.2776 -23.5636 C -75.2788 -23.5741 -75.8021 -23.5081 -75.8673 -23.5178" />
    <path d="M -75.8673 -23.5178 C -74.9693 -25.3601 -71.889 -24.9109 -72.9639 -22.833" />
    <path d="M -72.9639 -22.833 C -73.5108 -23.4618 -74.4407 -23.3144 -74.4395 -22.3958" />
  </g>
</g>
<g stroke="rgb(51, 51, 51)">
  <g>
    <path d="M -67.7181 -30.9253 C -68.0319 -31.2196 -68.6662 -31.2252 -69.0773 -31.2253" />
    <path d="M -69.0773 -31.2253 C -69.0773 -31.2253 -68.2587 -31.7395 -68.2587 -31.7395" />
    <path d="M -68.2587 -31.7395 C -69.0233 -31.9859 -69.8575 -31.9626 -70.6453 -31.8697" />
    <path d="M -70.6453 -31.8697 C -69.5684 -32.969 -67.2601 -33.9194 -66.1527 -32.3846" />
    <path d="M -66.1527 -32.3846 C -65.6751 -31.7229 -65.5325 -30.8025 -66.3566 -30.3611" />
    <path d="M -66.3566 -30.3611 C -65.7669 -31.1301 -67.3249 -31.8162 -67.7181 -30.9253" />
  </g>
</g>
<g stroke="rgb(51, 51, 51)">
  <g>
    <path d="M -75.2038 -8.6212 C -75.0673 -8.3029 -74.9396 -7.938 -74.6307 -7.7454" />
    <path d="M -74.6307 -7.7454 C -74.4285 -8.0005 -74.3358 -8.2944 -74.2472 -8.6018" />
    <path d="M -74.2472 -8.6018 C -73.6315 -7.7731 -72.7433 -7.2261 -71.8224 -6.7974" />
    <path d="M -71.8224 -6.7974 C -71.8224 -6.7974 -71.8333 -6.7974 -71.8333 -6.7974" />
    <path d="M -71.8333 -6.7974 C -71.7727 -6.7786 -71.7119 -6.7605 -71.6509 -6.7433" />
    <path d="M -71.6509 -6.7433 C -71.6509 -6.7433 -76.758 -6.7433 -76.758 -6.7433" />
    <path d="M -76.758 -6.7433 C -76.0128 -7.1235 -75.4421 -7.8097 -75.2038 -8.6212" />
  </g>
</g>
<g stroke="rgb(51, 51, 51)">
  <g>
    <path d="M -68.8711 -6.7433 C -66.8136 -7.3303 -64.3199 -9.5064 -64.821 -11.8423" />
    <path d="M -64.821 -11.8423 C -64.6813 -11.9498 -64.5271 -12.003 -64.3573 -12.0357" />
    <path d="M -64.3573 -12.0357 C -64.3573 -12.0357 -64.3573 -6.7433 -64.3573 -6.7433" />
    <path d="M -64.3573 -6.7433 C -64.3573 -6.7433 -68.8711 -6.7433 -68.8711 -6.7433" />
  </g>
</g>
<g stroke="rgb(51, 51, 51)">
  <g>
    <path d="M -67.2405 -24.2067 C -66.9953 -23.8954 -66.6633 -23.6419 -66.3229 -23.4449" />
    <path d="M -66.3229 -23.4449 C -66.3229 -23.4449 -66.4005 -24.1191 -66.4005 -24.1191" />
    <path d="M -66.4005 -24.1191 C -65.739 -23.8664 -64.9772 -23.9567 -64.3573 -24.2836" />
    <path d="M -64.3573 -24.2836 C -64.3573 -24.2836 -64.3573 -19.5693 -64.3573 -19.5693" />
    <path d="M -64.3573 -19.5693 C -64.9089 -20.6415 -66.2103 -19.9383 -66.0206 -19.137" />
    <path d="M -66.0206 -19.137 C -67.4728 -19.8181 -67.2127 -23.0542 -67.2405 -24.2067" />
  </g>
</g>
<g stroke="rgb(51, 51, 51)">
  <g>
    <path d="M -66.4181 -34.3096 C -65.3934 -34.9273 -64.6989 -35.6294 -64.3573 -36.7872" />
    <path d="M -64.3573 -36.7872 C -64.3573 -36.7872 -64.3573 -32.3372 -64.3573 -32.3372" />
    <path d="M -64.3573 -32.3372 C -64.6659 -33.3017 -65.5048 -33.9502 -66.4181 -34.3096" />
  </g>
</g>
<g stroke="rgb(51, 51, 51)">
  <g>
    <path d="M -86.6667 -29.8986 C -86.6667 -29.8986 -88.1048 -29.7552 -88.1048 -29.7552" />
    <path d="M -88.1048 -29.7552 C -88.1048 -29.7552 -87.4165 -30.2385 -87.4165 -30.2385" />
    <path d="M -87.4165 -30.2385 C -87.6405 -30.4068 -88.0316 -30.4386 -88.3045 -30.4647" />
    <path d="M -88.3045 -30.4647 C -88.3032 -28.5088 -91.1731 -28.5797 -91.8148 -30.1319" />
    <path d="M -91.8148 -30.1319 C -91.8148 -30.1319 -91.8148 -25.0242 -91.8148 -25.0242" />
    <path d="M -91.8148 -25.0242 C -91.2676 -24.8928 -90.6985 -24.8996 -90.1393 -24.8996" />
    <path d="M -90.1393 -24.8996 C -90.7151 -25.1316 -90.5958 -25.9173 -90.0919 -25.9173" />
    <path d="M -90.0919 -25.9173 C -90.0919 -25.3106 -89.0189 -25.5051 -88.5126 -26.5315" />
    <path d="M -88.5126 -26.5315 C -87.906 -27.7609 -87.7253 -28.8066 -86.6667 -29.8986" />
  </g>
</g>
<g stroke="rgb(51, 51, 51)">
  <g>
    <path d="M -88.4779 -19.6327 C -88.8428 -18.5575 -91.0155 -17.1769 -91.8148 -18.5613" />
    <path d="M -91.8148 -18.5613 C -91.8148 -18.5613 -91.8148 -12.3256 -91.8148 -12.3256" />
    <path d="M -91.8148 -12.3256 C -91.4568 -12.4371 -91.107 -12.4568 -90.7622 -12.2838" />
    <path d="M -90.7622 -12.2838 C -90.9331 -12.6818 -90.8343 -12.7766 -90.626 -13.072" />
    <path d="M -90.626 -13.072 C -90.5391 -13.3468 -90.7246 -14.0774 -90.7813 -14.3727" />
    <path d="M -90.7813 -14.3727 C -90.3163 -14.3727 -89.9844 -14.0812 -89.7427 -13.7102" />
    <path d="M -89.7427 -13.7102 C -89.2675 -14.4399 -88.5149 -14.6559 -87.8506 -15.1691" />
    <path d="M -87.8506 -15.1691 C -87.2334 -15.646 -86.9535 -16.3911 -86.7068 -17.1059" />
    <path d="M -86.7068 -17.1059 C -87.0555 -17.1125 -87.0471 -17.2578 -87.0213 -17.5031" />
    <path d="M -87.0213 -17.5031 C -87.5381 -17.4065 -87.7174 -17.9005 -87.4231 -18.2822" />
    <path d="M -87.4231 -18.2822 C -88.048 -18.7573 -87.1534 -19.0371 -86.6604 -18.9919" />
    <path d="M -86.6604 -18.9919 C -86.9952 -19.2825 -87.3013 -19.5817 -87.6033 -19.9068" />
    <path d="M -87.6033 -19.9068 C -87.6155 -19.0096 -87.9242 -18.627 -88.4779 -19.6327" />
  </g>
</g>
<g stroke="rgb(51, 51, 51)">
  <g>
    <path d="M -86.0807 -28.496 C -86.6998 -28.0103 -87.3034 -25.8956 -86.5217 -25.8518" />
    <path d="M -86.5217 -25.8518 C -85.8934 -25.8165 -86.1175 -25.5031 -86.3756 -25.3233" />
    <path d="M -86.3756 -25.3233 C -86.7662 -25.051 -86.4689 -25.0485 -86.2638 -24.7307" />
    <path d="M -86.2638 -24.7307 C -86.0738 -24.4369 -86.3865 -24.0747 -85.7916 -23.908" />
    <path d="M -85.7916 -23.908 C -86.271 -23.6626 -86.5446 -24.2828 -86.9581 -24.3897" />
    <path d="M -86.9581 -24.3897 C -87.5616 -24.5457 -87.1992 -23.959 -86.739 -23.8675" />
    <path d="M -86.739 -23.8675 C -86.1821 -23.7569 -86.2222 -23.6457 -86.5722 -23.4423" />
    <path d="M -86.5722 -23.4423 C -86.8811 -23.2629 -86.6942 -23.0765 -86.4993 -22.9002" />
    <path d="M -86.4993 -22.9002 C -86.3185 -22.7364 -86.0955 -22.3104 -86.1392 -21.9081" />
    <path d="M -86.1392 -21.9081 C -86.5398 -21.9081 -86.8325 -21.9627 -87.1531 -22.2037" />
    <path d="M -87.1531 -22.2037 C -86.6002 -21.1662 -85.7821 -19.9118 -84.4731 -19.9309" />
    <path d="M -84.4731 -19.9309 C -84.1253 -19.9358 -83.8872 -20.1011 -83.7288 -20.4067" />
    <path d="M -83.7288 -20.4067 C -83.4747 -20.4067 -83.1256 -19.7397 -83.6812 -19.515" />
    <path d="M -83.6812 -19.515 C -83.5343 -19.4486 -83.4824 -19.3211 -83.5174 -19.1856" />
    <path d="M -83.5174 -19.1856 C -82.8497 -19.5337 -82.8209 -19.8845 -83.0262 -20.4425" />
    <path d="M -83.0262 -20.4425 C -82.6104 -20.5834 -82.333 -20.2481 -82.4427 -20.7518" />
    <path d="M -82.4427 -20.7518 C -82.5 -21.0145 -82.5687 -21.3036 -82.2068 -21.2576" />
    <path d="M -82.2068 -21.2576 C -81.9161 -21.2207 -81.7809 -21.0363 -81.7262 -20.8035" />
    <path d="M -81.7262 -20.8035 C -81.6786 -20.6006 -81.7579 -20.2594 -81.5603 -20.1462" />
    <path d="M -81.5603 -20.1462 C -81.3346 -20.017 -81.1379 -19.9504 -82.0025 -19.1394" />
    <path d="M -82.0025 -19.1394 C -80.4087 -19.1589 -80.6387 -21.6453 -81.89 -21.9789" />
    <path d="M -81.89 -21.9789 C -83.1167 -20.5567 -85.2265 -21.1186 -85.1802 -23.3708" />
    <path d="M -85.1802 -23.3708 C -85.1499 -24.8406 -84.0923 -26.3269 -81.8033 -26.0792" />
    <path d="M -81.8033 -26.0792 C -82.9479 -27.5579 -83.2336 -29.5605 -82.012 -30.796" />
    <path d="M -82.012 -30.796 C -83.6811 -30.4712 -84.0749 -30.0794 -84.299 -28.3999" />
    <path d="M -84.299 -28.3999 C -84.299 -28.3999 -84.9713 -28.4537 -84.9713 -28.4537" />
    <path d="M -84.9713 -28.4537 C -85.3317 -28.3054 -85.6857 -27.8347 -85.7451 -27.2449" />
    <path d="M -85.7451 -27.2449 C -86.3089 -27.5163 -86.1946 -28.1842 -86.0807 -28.496" />
  </g>
</g>
<g stroke="rgb(51, 51, 51)">
  <g>
    <path d="M -87.0026 -9.799 C -87.0026 -9.5621 -87.0071 -9.2987 -86.8749 -9.0899" />
    <path d="M -86.8749 -9.0899 C -86.6799 -9.1904 -86.4722 -9.2916 -86.2472 -9.2481" />
    <path d="M -86.2472 -9.2481 C -86.2621 -9.0916 -86.3646 -8.9071 -86.4865 -8.8129" />
    <path d="M -86.4865 -8.8129 C -86.4865 -8.4946 -85.8708 -8.2745 -85.6535 -8.2182" />
    <path d="M -85.6535 -8.2182 C -85.9391 -8.5043 -85.8849 -9.1487 -85.3139 -9.2938" />
    <path d="M -85.3139 -9.2938 C -85.0994 -7.685 -82.3301 -9.4471 -82.2544 -10.9666" />
    <path d="M -82.2544 -10.9666 C -82.487 -10.7429 -82.946 -10.5896 -83.2619 -10.5896" />
    <path d="M -83.2619 -10.5896 C -83.1686 -11.0936 -82.9442 -11.4272 -82.6718 -11.8453" />
    <path d="M -82.6718 -11.8453 C -82.8751 -11.8879 -82.9995 -12.2638 -82.7935 -12.4999" />
    <path d="M -82.7935 -12.4999 C -82.6244 -12.3692 -82.3642 -12.3407 -82.2451 -12.5929" />
    <path d="M -82.2451 -12.5929 C -82.1342 -12.8279 -82.5123 -13.0628 -82.7354 -12.8108" />
    <path d="M -82.7354 -12.8108 C -83.3043 -12.169 -83.3971 -12.494 -83.6174 -12.494" />
    <path d="M -83.6174 -12.494 C -83.3945 -12.666 -83.193 -12.944 -83.249 -13.2319" />
    <path d="M -83.249 -13.2319 C -83.2954 -13.4705 -83.3882 -13.4962 -83.0585 -13.8805" />
    <path d="M -83.0585 -13.8805 C -83.441 -13.8867 -83.4229 -14.1217 -83.3594 -14.4168" />
    <path d="M -83.3594 -14.4168 C -82.2331 -13.8362 -82.7356 -15.7921 -82.9518 -16.1262" />
    <path d="M -82.9518 -16.1262 C -83.5624 -17.0701 -84.4766 -17.6817 -85.5015 -18.1238" />
    <path d="M -85.5015 -18.1238 C -85.101 -17.3767 -85.4168 -15.6742 -86.1879 -15.2503" />
    <path d="M -86.1879 -15.2503 C -85.7714 -15.2929 -85.3256 -15.3212 -84.9296 -15.1871" />
    <path d="M -84.9296 -15.1871 C -84.9431 -15.0202 -85.4539 -14.4252 -85.6279 -14.3947" />
    <path d="M -85.6279 -14.3947 C -84.0176 -13.5625 -83.415 -10.9032 -85.096 -10.1136" />
    <path d="M -85.096 -10.1136 C -86.0282 -9.6757 -87.4462 -9.778 -87.4591 -10.7583" />
    <path d="M -87.4591 -10.7583 C -87.6028 -10.5584 -87.7683 -10.3736 -87.9021 -10.167" />
    <path d="M -87.9021 -10.167 C -87.7387 -9.997 -87.5497 -9.7453 -87.7461 -9.517" />
    <path d="M -87.7461 -9.517 C -88.0111 -9.6682 -88.3759 -9.6061 -88.4536 -9.3493" />
    <path d="M -88.4536 -9.3493 C -88.5988 -8.8691 -87.9394 -7.9858 -87.4233 -8.1205" />
    <path d="M -87.4233 -8.1205 C -87.9817 -8.3744 -88.1696 -8.8115 -87.5599 -9.0278" />
    <path d="M -87.5599 -9.0278 C -87.5957 -9.293 -87.3833 -9.7128 -87.0026 -9.799" />
  </g>
</g>
<g stroke="rgb(51, 51, 51)">
  <g>
    <path d="M -88.5567 -10.5948 C -88.3895 -10.9653 -87.9214 -11.055 -87.5653 -11.1466" />
    <path d="M -87.5653 -11.1466 C -87.1607 -11.879 -86.4293 -12.396 -85.93 -11.6474" />
    <path d="M -85.93 -11.6474 C -85.3626 -13.0366 -87.7503 -13.9008 -88.8599 -12.466" />
    <path d="M -88.8599 -12.466 C -88.8599 -12.466 -89.1679 -12.0663 -89.1679 -12.0663" />
    <path d="M -89.1679 -12.0663 C -88.8433 -12.1273 -88.6525 -12.094 -88.3553 -11.9413" />
    <path d="M -88.3553 -11.9413 C -88.6597 -11.9903 -89.2601 -11.0596 -89.3693 -10.8103" />
    <path d="M -89.3693 -10.8103 C -89.0098 -11.0404 -88.7651 -10.9981 -88.5567 -10.5948" />
  </g>
</g>
<g stroke="rgb(51, 51, 51)">
  <g>
    <path d="M -81.7326 -22.3958 C -81.296 -22.5047 -80.8975 -22.3451 -80.5841 -22.0298" />
    <path d="M -80.5841 -22.0298 C -80.5208 -22.2077 -80.3071 -22.2715 -80.1399 -22.2174" />
    <path d="M -80.1399 -22.2174 C -80.5361 -22.6159 -80.7537 -23.0214 -80.8945 -23.5636" />
    <path d="M -80.8945 -23.5636 C -80.8933 -23.5741 -80.37 -23.5081 -80.3048 -23.5178" />
    <path d="M -80.3048 -23.5178 C -81.2028 -25.3601 -84.2831 -24.9109 -83.2082 -22.833" />
    <path d="M -83.2082 -22.833 C -82.6613 -23.4618 -81.7314 -23.3144 -81.7326 -22.3958" />
  </g>
</g>
<g stroke="rgb(51, 51, 51)">
  <g>
    <path d="M -88.4539 -30.9253 C -88.1402 -31.2196 -87.5059 -31.2252 -87.0948 -31.2253" />
    <path d="M -87.0948 -31.2253 C -87.0948 -31.2253 -87.9133 -31.7395 -87.9133 -31.7395" />
    <path d="M -87.9133 -31.7395 C -87.1488 -31.9859 -86.3146 -31.9626 -85.5268 -31.8697" />
    <path d="M -85.5268 -31.8697 C -86.6037 -32.969 -88.912 -33.9194 -90.0194 -32.3846" />
    <path d="M -90.0194 -32.3846 C -90.4969 -31.7229 -90.6396 -30.8025 -89.8155 -30.3611" />
    <path d="M -89.8155 -30.3611 C -90.4052 -31.1301 -88.8472 -31.8162 -88.4539 -30.9253" />
  </g>
</g>
<g stroke="rgb(51, 51, 51)">
  <g>
    <path d="M -80.9683 -8.6212 C -81.1048 -8.3029 -81.2325 -7.938 -81.5414 -7.7454" />
    <path d="M -81.5414 -7.7454 C -81.7436 -8.0005 -81.8363 -8.2944 -81.9249 -8.6018" />
    <path d="M -81.9249 -8.6018 C -82.5406 -7.7731 -83.4288 -7.2261 -84.3497 -6.7974" />
    <path d="M -84.3497 -6.7974 C -84.3497 -6.7974 -84.3388 -6.7974 -84.3388 -6.7974" />
    <path d="M -84.3388 -6.7974 C -84.3994 -6.7786 -84.4602 -6.7605 -84.5212 -6.7433" />
    <path d="M -84.5212 -6.7433 C -84.5212 -6.7433 -79.4141 -6.7433 -79.4141 -6.7433" />
    <path d="M -79.4141 -6.7433 C -80.1593 -7.1235 -80.73 -7.8097 -80.9683 -8.6212" />
  </g>
</g>
<g stroke="rgb(51, 51, 51)">
  <g>
    <path d="M -87.301 -6.7433 C -89.3585 -7.3303 -91.8522 -9.5064 -91.3511 -11.8423" />
    <path d="M -91.3511 -11.8423 C -91.4908 -11.9498 -91.645 -12.003 -91.8148 -12.0357" />
    <path d="M -91.8148 -12.0357 C -91.8148 -12.0357 -91.8148 -6.7433 -91.8148 -6.7433" />
    <path d="M -91.8148 -6.7433 C -91.8148 -6.7433 -87.301 -6.7433 -87.301 -6.7433" />
  </g>
</g>
<g stroke="rgb(51, 51, 51)">
  <g>
    <path d="M -88.9315 -24.2067 C -89.1768 -23.8954 -89.5087 -23.6419 -89.8492 -23.4449" />
    <path d="M -89.8492 -23.4449 C -89.8492 -23.4449 -89.7716 -24.1191 -89.7716 -24.1191" />
    <path d="M -89.7716 -24.1191 C -90.4331 -23.8664 -91.1949 -23.9567 -91.8148 -24.2836" />
    <path d="M -91.8148 -24.2836 C -91.8148 -24.2836 -91.8148 -19.5693 -91.8148 -19.5693" />
    <path d="M -91.8148 -19.5693 C -91.2632 -20.6415 -89.9618 -19.9383 -90.1515 -19.137" />
    <path d="M -90.1515 -19.137 C -88.6993 -19.8181 -88.9594 -23.0542 -88.9315 -24.2067" />
  </g>
</g>
<g stroke="rgb(51, 51, 51)">
  <g>
    <path d="M -89.754 -34.3096 C -90.7787 -34.9273 -91.4732 -35.6294 -91.8148 -36.7872" />
    <path d="M -91.8148 -36.7872 C -91.8148 -36.7872 -91.8148 -32.3372 -91.8148 -32.3372" />
    <path d="M -91.8148 -32.3372 C -91.5062 -33.3017 -90.6673 -33.9502 -89.754 -34.3096" />
  </g>
</g>
<g stroke="rgb(51, 51, 51)">
  <g>
    <path d="M -78.086 -45.8368 C -78.4311 -47.2157 -79.1081 -48.6823 -80.5019 -49.7183" />
    <path d="M -80.5019 -49.7183 C -79.1444 -49.734 -78.8156 -51.2423 -80.0495 -51.5612" />
    <path d="M -80.0495 -51.5612 C -80.4995 -51.6775 -80.9281 -51.2818 -81.0249 -50.856" />
    <path d="M -81.0249 -50.856 C -82.8251 -51.9078 -80.3049 -55.2987 -79.5068 -56.1631" />
    <path d="M -79.5068 -56.1631 C -79.4166 -55.6848 -79.1895 -55.2168 -78.6352 -55.2168" />
    <path d="M -78.6352 -55.2168 C -78.6352 -56.9854 -78.388 -56.4354 -78.086 -57.3277" />
    <path d="M -78.086 -57.3277 C -77.7841 -56.4354 -77.5369 -56.9854 -77.5369 -55.2168" />
    <path d="M -77.5369 -55.2168 C -76.9826 -55.2168 -76.7555 -55.6848 -76.6653 -56.1631" />
    <path d="M -76.6653 -56.1631 C -75.8672 -55.2987 -73.347 -51.9078 -75.1472 -50.856" />
    <path d="M -75.1472 -50.856 C -75.244 -51.2818 -75.6726 -51.6775 -76.1226 -51.5612" />
    <path d="M -76.1226 -51.5612 C -77.3565 -51.2423 -77.0277 -49.734 -75.6702 -49.7183" />
    <path d="M -75.6702 -49.7183 C -77.064 -48.6823 -77.741 -47.2157 -78.086 -45.8368" />
  </g>
</g>
<g stroke="rgb(51, 51, 51)">
  <g>
    <path d="M -78.086 -59.2111 C -78.5995 -60.5334 -79.8639 -61.8836 -81.0922 -62.4806" />
    <path d="M -81.0922 -62.4806 C -80.3805 -62.6941 -79.8438 -62.5683 -79.8438 -62.5683" />
    <path d="M -79.8438 -62.5683 C -79.9428 -62.8386 -80.3941 -63.0395 -80.6402 -63.1374" />
    <path d="M -80.6402 -63.1374 C -79.3204 -63.145 -78.3216 -63.8871 -78.3205 -63.8871" />
    <path d="M -78.3205 -63.8871 C -79.0473 -64.1677 -79.8704 -64.1706 -80.6371 -64.1711" />
    <path d="M -80.6371 -64.1711 C -80.4658 -64.2599 -80.0758 -64.5795 -79.999 -64.8548" />
    <path d="M -79.999 -64.8548 C -80.5382 -64.9141 -81.0511 -64.8121 -81.573 -64.6914" />
    <path d="M -81.573 -64.6914 C -81.1919 -65.2988 -80.2857 -67.4487 -79.1756 -66.5897" />
    <path d="M -79.1756 -66.5897 C -79.0888 -66.7948 -79.0883 -67.0089 -79.2117 -67.1995" />
    <path d="M -79.2117 -67.1995 C -78.9557 -67.3944 -78.4157 -67.4777 -78.086 -67.48" />
    <path d="M -78.086 -67.48 C -77.7564 -67.4777 -77.2164 -67.3944 -76.9604 -67.1995" />
    <path d="M -76.9604 -67.1995 C -77.0838 -67.0089 -77.0833 -66.7948 -76.9965 -66.5897" />
    <path d="M -76.9965 -66.5897 C -75.8864 -67.4487 -74.9802 -65.2988 -74.5991 -64.6914" />
    <path d="M -74.5991 -64.6914 C -75.121 -64.8121 -75.6339 -64.9141 -76.1731 -64.8548" />
    <path d="M -76.1731 -64.8548 C -76.0963 -64.5795 -75.7063 -64.2599 -75.535 -64.1711" />
    <path d="M -75.535 -64.1711 C -76.3016 -64.1706 -77.1248 -64.1677 -77.8516 -63.8871" />
    <path d="M -77.8516 -63.8871 C -77.8505 -63.8871 -76.8517 -63.145 -75.5319 -63.1374" />
    <path d="M -75.5319 -63.1374 C -75.778 -63.0395 -76.2293 -62.8386 -76.3283 -62.5683" />
    <path d="M -76.3283 -62.5683 C -76.3283 -62.5683 -75.7916 -62.6941 -75.0799 -62.4806" />
    <path d="M -75.0799 -62.4806 C -76.3082 -61.8836 -77.5726 -60.5334 -78.086 -59.2111" />
  </g>
</g>
<g stroke="rgb(51, 51, 51)">
  <g>
    <path d="M -78.086 -67.8787 C -78.6025 -68.2055 -79.2414 -68.2216 -79.8325 -68.1766" />
    <path d="M -79.8325 -68.1766 C -79.8325 -68.1766 -79.4942 -68.6996 -79.4942 -68.6996" />
    <path d="M -79.4942 -68.6996 C -79.8977 -68.6996 -80.3759 -68.6646 -80.7086 -68.4129" />
    <path d="M -80.7086 -68.4129 C -80.8216 -69.9142 -80.6613 -72.0563 -79.172 -72.8327" />
    <path d="M -79.172 -72.8327 C -79.2409 -72.4992 -79.0897 -71.8891 -78.6662 -72.1974" />
    <path d="M -78.6662 -72.1974 C -78.6154 -72.0408 -78.4976 -71.7652 -78.2869 -71.7931" />
    <path d="M -78.2869 -71.7931 C -78.2867 -72.4547 -78.4762 -72.9911 -78.4044 -73.3827" />
    <path d="M -78.4044 -73.3827 C -78.3495 -73.6807 -78.3039 -73.9575 -78.1004 -74.1884" />
    <path d="M -78.1004 -74.1884 C -78.1004 -74.1884 -78.0717 -74.1884 -78.0717 -74.1884" />
    <path d="M -78.0717 -74.1884 C -77.8682 -73.9575 -77.8226 -73.6807 -77.7677 -73.3827" />
    <path d="M -77.7677 -73.3827 C -77.6959 -72.9911 -77.8854 -72.4547 -77.8852 -71.7931" />
    <path d="M -77.8852 -71.7931 C -77.6744 -71.7652 -77.5567 -72.0408 -77.5058 -72.1974" />
    <path d="M -77.5058 -72.1974 C -77.0824 -71.8891 -76.9312 -72.4992 -77 -72.8327" />
    <path d="M -77 -72.8327 C -75.5108 -72.0563 -75.3505 -69.9142 -75.4635 -68.4129" />
    <path d="M -75.4635 -68.4129 C -75.7962 -68.6646 -76.2744 -68.6996 -76.6778 -68.6996" />
    <path d="M -76.6778 -68.6996 C -76.6778 -68.6996 -76.3396 -68.1766 -76.3396 -68.1766" />
    <path d="M -76.3396 -68.1766 C -76.9307 -68.2216 -77.5696 -68.2055 -78.086 -67.8787" />
  </g>
</g>
<g stroke="rgb(51, 51, 51)">
  <g>
    <path d="M -69.5054 -51.033 C -69.5054 -51.033 -68.0673 -51.1763 -68.0673 -51.1763" />
    <path d="M -68.0673 -51.1763 C -68.0673 -51.1763 -68.7555 -50.6931 -68.7555 -50.6931" />
    <path d="M -68.7555 -50.6931 C -68.5316 -50.5248 -68.1405 -50.4931 -67.8676 -50.4669" />
    <path d="M -67.8676 -50.4669 C -67.8689 -52.4229 -64.999 -52.352 -64.3573 -50.7997" />
    <path d="M -64.3573 -50.7997 C -64.3573 -50.7997 -64.3573 -55.9074 -64.3573 -55.9074" />
    <path d="M -64.3573 -55.9074 C -64.9045 -56.0389 -65.4736 -56.032 -66.0327 -56.032" />
    <path d="M -66.0327 -56.032 C -65.457 -55.8 -65.5763 -55.0144 -66.0801 -55.0144" />
    <path d="M -66.0801 -55.0144 C -66.0801 -55.6211 -67.1532 -55.4265 -67.6595 -54.4002" />
    <path d="M -67.6595 -54.4002 C -68.2661 -53.1707 -68.4468 -52.125 -69.5054 -51.033" />
  </g>
</g>
<g stroke="rgb(51, 51, 51)">
  <g>
    <path d="M -67.6942 -61.2989 C -67.3293 -62.3741 -65.1566 -63.7547 -64.3573 -62.3703" />
    <path d="M -64.3573 -62.3703 C -64.3573 -62.3703 -64.3573 -68.6061 -64.3573 -68.6061" />
    <path d="M -64.3573 -68.6061 C -64.7153 -68.4945 -65.0651 -68.4749 -65.4099 -68.6478" />
    <path d="M -65.4099 -68.6478 C -65.239 -68.2498 -65.3378 -68.1551 -65.5461 -67.8597" />
    <path d="M -65.5461 -67.8597 C -65.633 -67.5848 -65.4475 -66.8542 -65.3908 -66.5589" />
    <path d="M -65.3908 -66.5589 C -65.8558 -66.5589 -66.1877 -66.8504 -66.4294 -67.2214" />
    <path d="M -66.4294 -67.2214 C -66.9046 -66.4917 -67.6572 -66.2758 -68.3215 -65.7626" />
    <path d="M -68.3215 -65.7626 C -68.9387 -65.2856 -69.2186 -64.5405 -69.4653 -63.8258" />
    <path d="M -69.4653 -63.8258 C -69.1166 -63.8191 -69.125 -63.6738 -69.1508 -63.4285" />
    <path d="M -69.1508 -63.4285 C -68.634 -63.5252 -68.4547 -63.0311 -68.7489 -62.6494" />
    <path d="M -68.7489 -62.6494 C -68.1241 -62.1743 -69.0187 -61.8946 -69.5117 -61.9398" />
    <path d="M -69.5117 -61.9398 C -69.1769 -61.6491 -68.8707 -61.35 -68.5688 -61.0247" />
    <path d="M -68.5688 -61.0247 C -68.5566 -61.922 -68.2479 -62.3046 -67.6942 -61.2989" />
  </g>
</g>
<g stroke="rgb(51, 51, 51)">
  <g>
    <path d="M -70.0914 -52.4356 C -69.4723 -52.9214 -68.8687 -55.0361 -69.6504 -55.0799" />
    <path d="M -69.6504 -55.0799 C -70.2787 -55.1151 -70.0546 -55.4285 -69.7965 -55.6083" />
    <path d="M -69.7965 -55.6083 C -69.4059 -55.8805 -69.7032 -55.8831 -69.9083 -56.201" />
    <path d="M -69.9083 -56.201 C -70.0983 -56.4947 -69.7856 -56.8569 -70.3805 -57.0236" />
    <path d="M -70.3805 -57.0236 C -69.9011 -57.269 -69.6275 -56.6487 -69.214 -56.5419" />
    <path d="M -69.214 -56.5419 C -68.6105 -56.386 -68.9729 -56.9726 -69.4331 -57.064" />
    <path d="M -69.4331 -57.064 C -69.99 -57.1747 -69.9499 -57.286 -69.5999 -57.4894" />
    <path d="M -69.5999 -57.4894 C -69.291 -57.6688 -69.4779 -57.855 -69.6728 -58.0314" />
    <path d="M -69.6728 -58.0314 C -69.8536 -58.1951 -70.0766 -58.6212 -70.0329 -59.0235" />
    <path d="M -70.0329 -59.0235 C -69.6323 -59.0235 -69.3396 -58.9689 -69.0189 -58.728" />
    <path d="M -69.0189 -58.728 C -69.5719 -59.7655 -70.39 -61.0198 -71.699 -61.0008" />
    <path d="M -71.699 -61.0008 C -72.0468 -60.9957 -72.2849 -60.8306 -72.4433 -60.5248" />
    <path d="M -72.4433 -60.5248 C -72.6974 -60.5248 -73.0465 -61.1919 -72.4909 -61.4167" />
    <path d="M -72.4909 -61.4167 C -72.6378 -61.4831 -72.6897 -61.6106 -72.6547 -61.7461" />
    <path d="M -72.6547 -61.7461 C -73.3224 -61.3979 -73.3512 -61.0471 -73.1459 -60.4891" />
    <path d="M -73.1459 -60.4891 C -73.5617 -60.3483 -73.8391 -60.6835 -73.7294 -60.1798" />
    <path d="M -73.7294 -60.1798 C -73.6721 -59.9171 -73.6034 -59.628 -73.9653 -59.6739" />
    <path d="M -73.9653 -59.6739 C -74.256 -59.7109 -74.3912 -59.8954 -74.4459 -60.1281" />
    <path d="M -74.4459 -60.1281 C -74.4935 -60.331 -74.4142 -60.6722 -74.6118 -60.7854" />
    <path d="M -74.6118 -60.7854 C -74.8375 -60.9146 -75.0342 -60.9813 -74.1696 -61.7923" />
    <path d="M -74.1696 -61.7923 C -75.7634 -61.7727 -75.5334 -59.2862 -74.2821 -58.9528" />
    <path d="M -74.2821 -58.9528 C -73.0554 -60.3749 -70.9456 -59.813 -70.9919 -57.5609" />
    <path d="M -70.9919 -57.5609 C -71.0222 -56.0911 -72.0798 -54.6047 -74.3688 -54.8525" />
    <path d="M -74.3688 -54.8525 C -73.2242 -53.3738 -72.9385 -51.3711 -74.1601 -50.1356" />
    <path d="M -74.1601 -50.1356 C -72.491 -50.4604 -72.0972 -50.8523 -71.8731 -52.5317" />
    <path d="M -71.8731 -52.5317 C -71.8731 -52.5317 -71.2008 -52.4779 -71.2008 -52.4779" />
    <path d="M -71.2008 -52.4779 C -70.8404 -52.6261 -70.4864 -53.0969 -70.427 -53.6867" />
    <path d="M -70.427 -53.6867 C -69.8632 -53.4152 -69.9775 -52.7474 -70.0914 -52.4356" />
  </g>
</g>
<g stroke="rgb(51, 51, 51)">
  <g>
    <path d="M -69.1695 -71.1326 C -69.1695 -71.3695 -69.165 -71.633 -69.2972 -71.8416" />
    <path d="M -69.2972 -71.8416 C -69.4922 -71.7412 -69.6999 -71.64 -69.9249 -71.6835" />
    <path d="M -69.9249 -71.6835 C -69.91 -71.84 -69.8075 -72.0245 -69.6856 -72.1188" />
    <path d="M -69.6856 -72.1188 C -69.6856 -72.437 -70.3013 -72.6572 -70.5186 -72.7134" />
    <path d="M -70.5186 -72.7134 C -70.233 -72.4273 -70.2872 -71.783 -70.8582 -71.6379" />
    <path d="M -70.8582 -71.6379 C -71.0727 -73.2467 -73.842 -71.4845 -73.9177 -69.965" />
    <path d="M -73.9177 -69.965 C -73.6851 -70.1887 -73.2261 -70.3419 -72.9102 -70.3419" />
    <path d="M -72.9102 -70.3419 C -73.0035 -69.8381 -73.2279 -69.5044 -73.5003 -69.0863" />
    <path d="M -73.5003 -69.0863 C -73.297 -69.0438 -73.1726 -68.6678 -73.3786 -68.4317" />
    <path d="M -73.3786 -68.4317 C -73.5477 -68.5624 -73.8079 -68.591 -73.927 -68.3387" />
    <path d="M -73.927 -68.3387 C -74.0379 -68.1037 -73.6598 -67.8689 -73.4367 -68.1208" />
    <path d="M -73.4367 -68.1208 C -72.8678 -68.7627 -72.775 -68.4377 -72.5547 -68.4377" />
    <path d="M -72.5547 -68.4377 C -72.7776 -68.2656 -72.9791 -67.9876 -72.9231 -67.6998" />
    <path d="M -72.9231 -67.6998 C -72.8767 -67.4611 -72.7839 -67.4355 -73.1136 -67.0511" />
    <path d="M -73.1136 -67.0511 C -72.7311 -67.0449 -72.7492 -66.81 -72.8127 -66.5148" />
    <path d="M -72.8127 -66.5148 C -73.939 -67.0954 -73.4365 -65.1395 -73.2203 -64.8053" />
    <path d="M -73.2203 -64.8053 C -72.6097 -63.8615 -71.6955 -63.2499 -70.6706 -62.8078" />
    <path d="M -70.6706 -62.8078 C -71.0711 -63.5549 -70.7553 -65.2575 -69.9842 -65.6813" />
    <path d="M -69.9842 -65.6813 C -70.4007 -65.6386 -70.8465 -65.6105 -71.2425 -65.7446" />
    <path d="M -71.2425 -65.7446 C -71.229 -65.9115 -70.7182 -66.5065 -70.5442 -66.5369" />
    <path d="M -70.5442 -66.5369 C -72.1545 -67.369 -72.7571 -70.0284 -71.0761 -70.818" />
    <path d="M -71.0761 -70.818 C -70.1439 -71.2559 -68.7259 -71.1537 -68.7129 -70.1733" />
    <path d="M -68.7129 -70.1733 C -68.5693 -70.3732 -68.4038 -70.558 -68.27 -70.7646" />
    <path d="M -68.27 -70.7646 C -68.4333 -70.9345 -68.6224 -71.1863 -68.426 -71.4146" />
    <path d="M -68.426 -71.4146 C -68.1609 -71.2635 -67.7961 -71.3255 -67.7185 -71.5823" />
    <path d="M -67.7185 -71.5823 C -67.5733 -72.0626 -68.2327 -72.9458 -68.7488 -72.8112" />
    <path d="M -68.7488 -72.8112 C -68.1903 -72.5572 -68.0025 -72.1202 -68.6122 -71.9038" />
    <path d="M -68.6122 -71.9038 C -68.5764 -71.6385 -68.7888 -71.2188 -69.1695 -71.1326" />
  </g>
</g>
<g stroke="rgb(51, 51, 51)">
  <g>
    <path d="M -67.6154 -70.3369 C -67.7826 -69.9663 -68.2507 -69.8766 -68.6067 -69.785" />
    <path d="M -68.6067 -69.785 C -69.0114 -69.0526 -69.7428 -68.5356 -70.2421 -69.2843" />
    <path d="M -70.2421 -69.2843 C -70.8095 -67.895 -68.4218 -67.0308 -67.3122 -68.4656" />
    <path d="M -67.3122 -68.4656 C -67.3122 -68.4656 -67.0042 -68.8653 -67.0042 -68.8653" />
    <path d="M -67.0042 -68.8653 C -67.3287 -68.8044 -67.5196 -68.8377 -67.8168 -68.9903" />
    <path d="M -67.8168 -68.9903 C -67.5124 -68.9413 -66.912 -69.872 -66.8028 -70.1214" />
    <path d="M -66.8028 -70.1214 C -67.1623 -69.8912 -67.407 -69.9336 -67.6154 -70.3369" />
  </g>
</g>
<g stroke="rgb(51, 51, 51)">
  <g>
    <path d="M -74.4395 -58.5358 C -74.8761 -58.427 -75.2746 -58.5865 -75.588 -58.9018" />
    <path d="M -75.588 -58.9018 C -75.6513 -58.724 -75.865 -58.6601 -76.0322 -58.7142" />
    <path d="M -76.0322 -58.7142 C -75.636 -58.3158 -75.4184 -57.9101 -75.2776 -57.3679" />
    <path d="M -75.2776 -57.3679 C -75.2788 -57.3575 -75.8021 -57.4235 -75.8673 -57.4139" />
    <path d="M -75.8673 -57.4139 C -74.9693 -55.5715 -71.889 -56.0207 -72.9639 -58.0985" />
    <path d="M -72.9639 -58.0985 C -73.5108 -57.4699 -74.4407 -57.6172 -74.4395 -58.5358" />
  </g>
</g>
<g stroke="rgb(51, 51, 51)">
  <g>
    <path d="M -67.7181 -50.0062 C -68.0319 -49.712 -68.6662 -49.7064 -69.0773 -49.7063" />
    <path d="M -69.0773 -49.7063 C -69.0773 -49.7063 -68.2587 -49.1922 -68.2587 -49.1922" />
    <path d="M -68.2587 -49.1922 C -69.0233 -48.9458 -69.8575 -48.969 -70.6453 -49.0619" />
    <path d="M -70.6453 -49.0619 C -69.5684 -47.9626 -67.2601 -47.0123 -66.1527 -48.5469" />
    <path d="M -66.1527 -48.5469 C -65.6751 -49.2088 -65.5325 -50.1291 -66.3566 -50.5705" />
    <path d="M -66.3566 -50.5705 C -65.7669 -49.8016 -67.3249 -49.1153 -67.7181 -50.0062" />
  </g>
</g>
<g stroke="rgb(51, 51, 51)">
  <g>
    <path d="M -75.2038 -72.3104 C -75.0673 -72.6287 -74.9396 -72.9936 -74.6307 -73.1863" />
    <path d="M -74.6307 -73.1863 C -74.4285 -72.9312 -74.3358 -72.6373 -74.2472 -72.3298" />
    <path d="M -74.2472 -72.3298 C -73.6315 -73.1585 -72.7433 -73.7055 -71.8224 -74.1342" />
    <path d="M -71.8224 -74.1342 C -71.8224 -74.1342 -71.8333 -74.1342 -71.8333 -74.1342" />
    <path d="M -71.8333 -74.1342 C -71.7727 -74.153 -71.7119 -74.1711 -71.6509 -74.1884" />
    <path d="M -71.6509 -74.1884 C -71.6509 -74.1884 -76.758 -74.1884 -76.758 -74.1884" />
    <path d="M -76.758 -74.1884 C -76.0128 -73.8082 -75.4421 -73.1219 -75.2038 -72.3104" />
  </g>
</g>
<g stroke="rgb(51, 51, 51)">
  <g>
    <path d="M -68.8711 -74.1884 C -66.8136 -73.6014 -64.3199 -71.4252 -64.821 -69.0893" />
    <path d="M -64.821 -69.0893 C -64.6813 -68.9819 -64.5271 -68.9286 -64.3573 -68.8959" />
    <path d="M -64.3573 -68.8959 C -64.3573 -68.8959 -64.3573 -74.1884 -64.3573 -74.1884" />
    <path d="M -64.3573 -74.1884 C -64.3573 -74.1884 -68.8711 -74.1884 -68.8711 -74.1884" />
  </g>
</g>
<g stroke="rgb(51, 51, 51)">
  <g>
    <path d="M -67.2405 -56.7249 C -66.9953 -57.0362 -66.6633 -57.2897 -66.3229 -57.4867" />
    <path d="M -66.3229 -57.4867 C -66.3229 -57.4867 -66.4005 -56.8126 -66.4005 -56.8126" />
    <path d="M -66.4005 -56.8126 C -65.739 -57.0653 -64.9772 -56.9749 -64.3573 -56.6481" />
    <path d="M -64.3573 -56.6481 C -64.3573 -56.6481 -64.3573 -61.3623 -64.3573 -61.3623" />
    <path d="M -64.3573 -61.3623 C -64.9089 -60.2901 -66.2103 -60.9933 -66.0206 -61.7946" />
    <path d="M -66.0206 -61.7946 C -67.4728 -61.1135 -67.2127 -57.8773 -67.2405 -56.7249" />
  </g>
</g>
<g stroke="rgb(51, 51, 51)">
  <g>
    <path d="M -66.4181 -46.6221 C -65.3934 -46.0043 -64.6989 -45.3022 -64.3573 -44.1444" />
    <path d="M -64.3573 -44.1444 C -64.3573 -44.1444 -64.3573 -48.5944 -64.3573 -48.5944" />
    <path d="M -64.3573 -48.5944 C -64.6659 -47.6298 -65.5048 -46.9814 -66.4181 -46.6221" />
  </g>
</g>
<g stroke="rgb(51, 51, 51)">
  <g>
    <path d="M -86.6667 -51.033 C -86.6667 -51.033 -88.1048 -51.1763 -88.1048 -51.1763" />
    <path d="M -88.1048 -51.1763 C -88.1048 -51.1763 -87.4165 -50.6931 -87.4165 -50.6931" />
    <path d="M -87.4165 -50.6931 C -87.6405 -50.5248 -88.0316 -50.4931 -88.3045 -50.4669" />
    <path d="M -88.3045 -50.4669 C -88.3032 -52.4229 -91.1731 -52.352 -91.8148 -50.7997" />
    <path d="M -91.8148 -50.7997 C -91.8148 -50.7997 -91.8148 -55.9074 -91.8148 -55.9074" />
    <path d="M -91.8148 -55.9074 C -91.2676 -56.0389 -90.6985 -56.032 -90.1393 -56.032" />
    <path d="M -90.1393 -56.032 C -90.7151 -55.8 -90.5958 -55.0144 -90.0919 -55.0144" />
    <path d="M -90.0919 -55.0144 C -90.0919 -55.6211 -89.0189 -55.4265 -88.5126 -54.4002" />
    <path d="M -88.5126 -54.4002 C -87.906 -53.1707 -87.7253 -52.125 -86.6667 -51.033" />
  </g>
</g>
<g stroke="rgb(51, 51, 51)">
  <g>
    <path d="M -88.4779 -61.2989 C -88.8428 -62.3741 -91.0155 -63.7547 -91.8148 -62.3703" />
    <path d="M -91.8148 -62.3703 C -91.8148 -62.3703 -91.8148 -68.6061 -91.8148 -68.6061" />
    <path d="M -91.8148 -68.6061 C -91.4568 -68.4945 -91.107 -68.4749 -90.7622 -68.6478" />
    <path d="M -90.7622 -68.6478 C -90.9331 -68.2498 -90.8343 -68.1551 -90.626 -67.8597" />
    <path d="M -90.626 -67.8597 C -90.5391 -67.5848 -90.7246 -66.8542 -90.7813 -66.5589" />
    <path d="M -90.7813 -66.5589 C -90.3163 -66.5589 -89.9844 -66.8504 -89.7427 -67.2214" />
    <path d="M -89.7427 -67.2214 C -89.2675 -66.4917 -88.5149 -66.2758 -87.8506 -65.7626" />
    <path d="M -87.8506 -65.7626 C -87.2334 -65.2856 -86.9535 -64.5405 -86.7068 -63.8258" />
    <path d="M -86.7068 -63.8258 C -87.0555 -63.8191 -87.0471 -63.6738 -87.0213 -63.4285" />
    <path d="M -87.0213 -63.4285 C -87.5381 -63.5252 -87.7174 -63.0311 -87.4231 -62.6494" />
    <path d="M -87.4231 -62.6494 C -88.048 -62.1743 -87.1534 -61.8946 -86.6604 -61.9398" />
    <path d="M -86.6604 -61.9398 C -86.9952 -61.6491 -87.3013 -61.35 -87.6033 -61.0247" />
    <path d="M -87.6033 -61.0247 C -87.6155 -61.922 -87.9242 -62.3046 -88.4779 -61.2989" />
  </g>
</g>
<g stroke="rgb(51, 51, 51)">
  <g>
    <path d="M -86.0807 -52.4356 C -86.6998 -52.9214 -87.3034 -55.0361 -86.5217 -55.0799" />
    <path d="M -86.5217 -55.0799 C -85.8934 -55.1151 -86.1175 -55.4285 -86.3756 -55.6083" />
    <path d="M -86.3756 -55.6083 C -86.7662 -55.8805 -86.4689 -55.8831 -86.2638 -56.201" />
    <path d="M -86.2638 -56.201 C -86.0738 -56.4947 -86.3865 -56.8569 -85.7916 -57.0236" />
    <path d="M -85.7916 -57.0236 C -86.271 -57.269 -86.5446 -56.6487 -86.9581 -56.5419" />
    <path d="M -86.9581 -56.5419 C -87.5616 -56.386 -87.1992 -56.9726 -86.739 -57.064" />
    <path d="M -86.739 -57.064 C -86.1821 -57.1747 -86.2222 -57.286 -86.5722 -57.4894" />
    <path d="M -86.5722 -57.4894 C -86.8811 -57.6688 -86.6942 -57.855 -86.4993 -58.0314" />
    <path d="M -86.4993 -58.0314 C -86.3185 -58.1951 -86.0955 -58.6212 -86.1392 -59.0235" />
    <path d="M -86.1392 -59.0235 C -86.5398 -59.0235 -86.8325 -58.9689 -87.1531 -58.728" />
    <path d="M -87.1531 -58.728 C -86.6002 -59.7655 -85.7821 -61.0198 -84.4731 -61.0008" />
    <path d="M -84.4731 -61.0008 C -84.1253 -60.9957 -83.8872 -60.8306 -83.7288 -60.5248" />
    <path d="M -83.7288 -60.5248 C -83.4747 -60.5248 -83.1256 -61.1919 -83.6812 -61.4167" />
    <path d="M -83.6812 -61.4167 C -83.5343 -61.4831 -83.4824 -61.6106 -83.5174 -61.7461" />
    <path d="M -83.5174 -61.7461 C -82.8497 -61.3979 -82.8209 -61.0471 -83.0262 -60.4891" />
    <path d="M -83.0262 -60.4891 C -82.6104 -60.3483 -82.333 -60.6835 -82.4427 -60.1798" />
    <path d="M -82.4427 -60.1798 C -82.5 -59.9171 -82.5687 -59.628 -82.2068 -59.6739" />
    <path d="M -82.2068 -59.6739 C -81.9161 -59.7109 -81.7809 -59.8954 -81.7262 -60.1281" />
    <path d="M -81.7262 -60.1281 C -81.6786 -60.331 -81.7579 -60.6722 -81.5603 -60.7854" />
    <path d="M -81.5603 -60.7854 C -81.3346 -60.9146 -81.1379 -60.9813 -82.0025 -61.7923" />
    <path d="M -82.0025 -61.7923 C -80.4087 -61.7727 -80.6387 -59.2862 -81.89 -58.9528" />
    <path d="M -81.89 -58.9528 C -83.1167 -60.3749 -85.2265 -59.813 -85.1802 -57.5609" />
    <path d="M -85.1802 -57.5609 C -85.1499 -56.0911 -84.0923 -54.6047 -81.8033 -54.8525" />
    <path d="M -81.8033 -54.8525 C -82.9479 -53.3738 -83.2336 -51.3711 -82.012 -50.1356" />
    <path d="M -82.012 -50.1356 C -83.6811 -50.4604 -84.0749 -50.8523 -84.299 -52.5317" />
    <path d="M -84.299 -52.5317 C -84.299 -52.5317 -84.9713 -52.4779 -84.9713 -52.4779" />
    <path d="M -84.9713 -52.4779 C -85.3317 -52.6261 -85.6857 -53.0969 -85.7451 -53.6867" />
    <path d="M -85.7451 -53.6867 C -86.3089 -53.4152 -86.1946 -52.7474 -86.0807 -52.4356" />
  </g>
</g>
<g stroke="rgb(51, 51, 51)">
  <g>
    <path d="M -87.0026 -71.1326 C -87.0026 -71.3695 -87.0071 -71.633 -86.8749 -71.8416" />
    <path d="M -86.8749 -71.8416 C -86.6799 -71.7412 -86.4722 -71.64 -86.2472 -71.6835" />
    <path d="M -86.2472 -71.6835 C -86.2621 -71.84 -86.3646 -72.0245 -86.4865 -72.1188" />
    <path d="M -86.4865 -72.1188 C -86.4865 -72.437 -85.8708 -72.6572 -85.6535 -72.7134" />
    <path d="M -85.6535 -72.7134 C -85.9391 -72.4273 -85.8849 -71.783 -85.3139 -71.6379" />
    <path d="M -85.3139 -71.6379 C -85.0994 -73.2467 -82.3301 -71.4845 -82.2544 -69.965" />
    <path d="M -82.2544 -69.965 C -82.487 -70.1887 -82.946 -70.3419 -83.2619 -70.3419" />
    <path d="M -83.2619 -70.3419 C -83.1686 -69.8381 -82.9442 -69.5044 -82.6718 -69.0863" />
    <path d="M -82.6718 -69.0863 C -82.8751 -69.0438 -82.9995 -68.6678 -82.7935 -68.4317" />
    <path d="M -82.7935 -68.4317 C -82.6244 -68.5624 -82.3642 -68.591 -82.2451 -68.3387" />
    <path d="M -82.2451 -68.3387 C -82.1342 -68.1037 -82.5123 -67.8689 -82.7354 -68.1208" />
    <path d="M -82.7354 -68.1208 C -83.3043 -68.7627 -83.3971 -68.4377 -83.6174 -68.4377" />
    <path d="M -83.6174 -68.4377 C -83.3945 -68.2656 -83.193 -67.9876 -83.249 -67.6998" />
    <path d="M -83.249 -67.6998 C -83.2954 -67.4611 -83.3882 -67.4355 -83.0585 -67.0511" />
    <path d="M -83.0585 -67.0511 C -83.441 -67.0449 -83.4229 -66.81 -83.3594 -66.5148" />
    <path d="M -83.3594 -66.5148 C -82.2331 -67.0954 -82.7356 -65.1395 -82.9518 -64.8053" />
    <path d="M -82.9518 -64.8053 C -83.5624 -63.8615 -84.4766 -63.2499 -85.5015 -62.8078" />
    <path d="M -85.5015 -62.8078 C -85.101 -63.5549 -85.4168 -65.2575 -86.1879 -65.6813" />
    <path d="M -86.1879 -65.6813 C -85.7714 -65.6386 -85.3256 -65.6105 -84.9296 -65.7446" />
    <path d="M -84.9296 -65.7446 C -84.9431 -65.9115 -85.4539 -66.5065 -85.6279 -66.5369" />
    <path d="M -85.6279 -66.5369 C -84.0176 -67.369 -83.415 -70.0284 -85.096 -70.818" />
    <path d="M -85.096 -70.818 C -86.0282 -71.2559 -87.4462 -71.1537 -87.4591 -70.1733" />
    <path d="M -87.4591 -70.1733 C -87.6028 -70.3732 -87.7683 -70.558 -87.9021 -70.7646" />
    <path d="M -87.9021 -70.7646 C -87.7387 -70.9345 -87.5497 -71.1863 -87.7461 -71.4146" />
    <path d="M -87.7461 -71.4146 C -88.0111 -71.2635 -88.3759 -71.3255 -88.4536 -71.5823" />
    <path d="M -88.4536 -71.5823 C -88.5988 -72.0626 -87.9394 -72.9458 -87.4233 -72.8112" />
    <path d="M -87.4233 -72.8112 C -87.9817 -72.5572 -88.1696 -72.1202 -87.5599 -71.9038" />
    <path d="M -87.5599 -71.9038 C -87.5957 -71.6385 -87.3833 -71.2188 -87.0026 -71.1326" />
  </g>
</g>
<g stroke="rgb(51, 51, 51)">
  <g>
    <path d="M -88.5567 -70.3369 C -88.3895 -69.9663 -87.9214 -69.8766 -87.5653 -69.785" />
    <path d="M -87.5653 -69.785 C -87.1607 -69.0526 -86.4293 -68.5356 -85.93 -69.2843" />
    <path d="M -85.93 -69.2843 C -85.3626 -67.895 -87.7503 -67.0308 -88.8599 -68.4656" />
    <path d="M -88.8599 -68.4656 C -88.8599 -68.4656 -89.1679 -68.8653 -89.1679 -68.8653" />
    <path d="M -89.1679 -68.8653 C -88.8433 -68.8044 -88.6525 -68.8377 -88.3553 -68.9903" />
    <path d="M -88.3553 -68.9903 C -88.6597 -68.9413 -89.2601 -69.872 -89.3693 -70.1214" />
    <path d="M -89.3693 -70.1214 C -89.0098 -69.8912 -88.7651 -69.9336 -88.5567 -70.3369" />
  </g>
</g>
<g stroke="rgb(51, 51, 51)">
  <g>
    <path d="M -81.7326 -58.5358 C -81.296 -58.427 -80.8975 -58.5865 -80.5841 -58.9018" />
    <path d="M -80.5841 -58.9018 C -80.5208 -58.724 -80.3071 -58.6601 -80.1399 -58.7142" />
    <path d="M -80.1399 -58.7142 C -80.5361 -58.3158 -80.7537 -57.9101 -80.8945 -57.3679" />
    <path d="M -80.8945 -57.3679 C -80.8933 -57.3575 -80.37 -57.4235 -80.3048 -57.4139" />
    <path d="M -80.3048 -57.4139 C -81.2028 -55.5715 -84.2831 -56.0207 -83.2082 -58.0985" />
    <path d="M -83.2082 -58.0985 C -82.6613 -57.4699 -81.7314 -57.6172 -81.7326 -58.5358" />
  </g>
</g>
<g stroke="rgb(51, 51, 51)">
  <g>
    <path d="M -88.4539 -50.0062 C -88.1402 -49.712 -87.5059 -49.7064 -87.0948 -49.7063" />
    <path d="M -87.0948 -49.7063 C -87.0948 -49.7063 -87.9133 -49.1922 -87.9133 -49.1922" />
    <path d="M -87.9133 -49.1922 C -87.1488 -48.9458 -86.3146 -48.969 -85.5268 -49.0619" />
    <path d="M -85.5268 -49.0619 C -86.6037 -47.9626 -88.912 -47.0123 -90.0194 -48.5469" />
    <path d="M -90.0194 -48.5469 C -90.4969 -49.2088 -90.6396 -50.1291 -89.8155 -50.5705" />
    <path d="M -89.8155 -50.5705 C -90.4052 -49.8016 -88.8472 -49.1153 -88.4539 -50.0062" />
  </g>
</g>
<g stroke="rgb(51, 51, 51)">
  <g>
    <path d="M -80.9683 -72.3104 C -81.1048 -72.6287 -81.2325 -72.9936 -81.5414 -73.1863" />
    <path d="M -81.5414 -73.1863 C -81.7436 -72.9312 -81.8363 -72.6373 -81.9249 -72.3298" />
    <path d="M -81.9249 -72.3298 C -82.5406 -73.1585 -83.4288 -73.7055 -84.3497 -74.1342" />
    <path d="M -84.3497 -74.1342 C -84.3497 -74.1342 -84.3388 -74.1342 -84.3388 -74.1342" />
    <path d="M -84.3388 -74.1342 C -84.3994 -74.153 -84.4602 -74.1711 -84.5212 -74.1884" />
    <path d="M -84.5212 -74.1884 C -84.5212 -74.1884 -79.4141 -74.1884 -79.4141 -74.1884" />
    <path d="M -79.4141 -74.1884 C -80.1593 -73.8082 -80.73 -73.1219 -80.9683 -72.3104" />
  </g>
</g>
<g stroke="rgb(51, 51, 51)">
  <g>
    <path d="M -87.301 -74.1884 C -89.3585 -73.6014 -91.8522 -71.4252 -91.3511 -69.0893" />
    <path d="M -91.3511 -69.0893 C -91.4908 -68.9819 -91.645 -68.9286 -91.8148 -68.8959" />
    <path d="M -91.8148 -68.8959 C -91.8148 -68.8959 -91.8148 -74.1884 -91.8148 -74.1884" />
    <path d="M -91.8148 -74.1884 C -91.8148 -74.1884 -87.301 -74.1884 -87.301 -74.1884" />
  </g>
</g>
<g stroke="rgb(51, 51, 51)">
  <g>
    <path d="M -88.9315 -56.7249 C -89.1768 -57.0362 -89.5087 -57.2897 -89.8492 -57.4867" />
    <path d="M -89.8492 -57.4867 C -89.8492 -57.4867 -89.7716 -56.8126 -89.7716 -56.8126" />
    <path d="M -89.7716 -56.8126 C -90.4331 -57.0653 -91.1949 -56.9749 -91.8148 -56.6481" />
    <path d="M -91.8148 -56.6481 C -91.8148 -56.6481 -91.8148 -61.3623 -91.8148 -61.3623" />
    <path d="M -91.8148 -61.3623 C -91.2632 -60.2901 -89.9618 -60.9933 -90.1515 -61.7946" />
    <path d="M -90.1515 -61.7946 C -88.6993 -61.1135 -88.9594 -57.8773 -88.9315 -56.7249" />
  </g>
</g>
<g stroke="rgb(51, 51, 51)">
  <g>
    <path d="M -89.754 -46.6221 C -90.7787 -46.0043 -91.4732 -45.3022 -91.8148 -44.1444" />
    <path d="M -91.8148 -44.1444 C -91.8148 -44.1444 -91.8148 -48.5944 -91.8148 -48.5944" />
    <path d="M -91.8148 -48.5944 C -91.5062 -47.6298 -90.6673 -46.9814 -89.754 -46.6221" />
  </g>
</g>
  </g>
</svg>