<?xml version="1.0"?>
<svg
  xmlns="http://www.w3.org/2000/svg"
  xmlns:xlink="http://www.w3.org/1999/xlink" version="1.1"
  preserveAspectRatio="xMinYMin meet"
  viewBox="2.983625046262034 -4.1993876556301855 2.5148007150448093 1.9657626093681513"
  width="100%" height="100%"
>
  <g stroke="#000000" stroke-width="0.1%" fill="none" transform="matrix(1,0,0,-1,0,0)">
    <g stroke="rgb(0, 0, 0)">
  <g transform="matrix(1 0 0 1 -1.5 -3.5)">
    <g transform="matrix(-0.7499999999999997 1.299038105676658 1.299038105676658 0.7499999999999997 5 6)">
      <circle cx="0" cy="0" r="0.13" />
    </g>
  </g>
</g>
<g stroke="rgb(0, 0, 0)">
  <g transform="matrix(1 0 0 1 -1.5 -3.5)">
    <g transform="matrix(-0.7499999999999997 1.299038105676658 1.299038105676658 0.7499999999999997 4.75 6.43301270189222)">
      <circle cx="0" cy="0" r="0.13" />
    </g>
  </g>
</g>
<g stroke="rgb(0, 0, 0)">
  <g transform="matrix(1 0 0 1 -1.5 -3.5)">
    <g transform="matrix(-0.7499999999999997 1.299038105676658 1.299038105676658 0.7499999999999997 5.866025403784438 6.5)">
      <circle cx="0" cy="0" r="0.13" />
    </g>
  </g>
</g>
<g stroke="rgb(0, 0, 0)">
  <g transform="matrix(1 0 0 1 -1.5 -3.5)">
    <g transform="matrix(-0.7499999999999997 1.299038105676658 1.299038105676658 0.7499999999999997 5.616025403784438 6.93301270189222)">
      <circle cx="0" cy="0" r="0.13" />
    </g>
  </g>
</g>
<g stroke="rgb(0, 0, 0)">
  <g transform="matrix(1 0 0 1 -1.5 -3.5)">
    <g transform="matrix(-0.7499999999999997 1.299038105676658 1.299038105676658 0.7499999999999997 6.732050807568878 7)">
      <circle cx="0" cy="0" r="0.13" />
    </g>
  </g>
</g>
<g stroke="rgb(0, 0, 0)">
  <g transform="matrix(1 0 0 1 -1.5 -3.5)">
    <g transform="matrix(-0.7499999999999997 1.299038105676658 1.299038105676658 0.7499999999999997 6.482050807568878 7.43301270189222)">
      <circle cx="0" cy="0" r="0.13" />
    </g>
  </g>
</g>
  </g>
</svg>